<?xml version="1.0" encoding="UTF-8"?>
<svg width="1000px" height="1000px" viewBox="0 0 1000 1000" version="1.1" xmlns="http://www.w3.org/2000/svg" xmlns:xlink="http://www.w3.org/1999/xlink">
    <title>Artboard</title>
    <defs>
        <linearGradient x1="50%" y1="0%" x2="50%" y2="100%" id="linearGradient-1">
            <stop stop-color="#171717" offset="0%"></stop>
            <stop stop-color="#000000" offset="100%"></stop>
        </linearGradient>
    </defs>
    <g id="Artboard" stroke="none" fill="none" fill-rule="nonzero">
        <path d="M752.631,414.912 L752.631,293.05 C752.631,283.360667 748.345333,274.230333 739.774,265.659 C731.202667,257.087667 722.072333,252.802 712.383,252.802 L666.545,252.802 L666.545,462.986 L752.631,414.912 Z M647.539,469.694 L648.657,252.802 L594.993,252.802 L594.993,500.998 L647.539,469.694 Z M578.223,578.14 L577.105,252.802 L518.969,252.802 L518.969,608.326 L578.223,578.14 Z M805.177,656.4 C805.177,617.642667 792.133667,584.848 766.047,558.016 C739.960333,531.184 707.911,517.022667 669.899,515.532 L669.899,757.02 L770.519,757.02 C778.717667,757.02 786.916333,742.486 795.115,713.418 C801.823,688.822 805.177,669.816 805.177,656.4 Z M649.775,541.246 L650.893,513.296 L594.993,513.296 L594.993,573.668 C595.738333,572.922667 613.999,562.115333 649.775,541.246 Z M649.775,568.078 C647.539,568.823333 629.278333,578.885333 594.993,598.264 L594.993,759.256 L649.775,759.256 L649.775,568.078 Z M400.461,676.524 L400.461,308.702 L362.449,322.118 L361.331,698.884 L400.461,676.524 Z M155.619,704.474 C142.203,682.859333 113.507667,656.4 69.533,625.096 C81.4583333,620.624 96.924,608.326 115.93,588.202 C134.936,568.078 144.439,552.426 144.439,541.246 C144.439,530.066 134.749667,514.786667 115.371,495.408 C97.483,478.265333 82.2036667,466.712667 69.533,460.75 C100.837,444.352667 128.414333,416.775333 152.265,378.018 C176.115667,413.048667 202.575,439.508 231.643,457.396 C192.140333,479.010667 166.799,506.588 155.619,540.128 C180.215,578.14 206.301667,603.108667 233.879,615.034 L233.879,440.626 C233.879,416.03 233.506333,395.160667 232.761,378.018 C232.015667,360.875333 220.090333,345.223333 196.985,331.062 L132.141,290.814 C109.035667,270.69 97.483,244.603333 97.483,212.554 C97.483,187.212667 106.799667,165.039 125.433,146.033 C144.066333,127.027 166.053667,117.524 191.395,117.524 C222.699,117.524 257.543333,134.853 295.928,169.511 C334.312667,204.169 366.175667,221.498 391.517,221.498 C410.150333,221.498 426.547667,216.094333 440.709,205.287 C454.870333,194.479667 461.951,180.877333 461.951,164.48 C461.951,155.536 458.224333,146.964667 450.771,138.766 C443.317667,130.567333 435.119,126.468 426.175,126.468 C409.032333,126.468 400.461,133.176 400.461,146.592 C400.461,154.790667 407.914333,160.753333 422.821,164.48 C423.566333,171.188 421.330333,177.150667 416.113,182.368 C410.895667,187.585333 405.305667,190.194 399.343,190.194 C379.219,190.194 369.157,178.641333 369.157,155.536 C369.157,124.977333 387.790333,109.698 425.057,109.698 C438.473,109.698 450.398333,115.660667 460.833,127.586 C471.267667,139.511333 476.485,152.182 476.485,165.598 C476.485,186.467333 467.541,203.796333 449.653,217.585 C431.765,231.373667 411.268333,238.268 388.163,238.268 C358.349667,238.268 324.809667,220.752667 287.543,185.722 L288.661,195.784 C290.897,215.162667 286.425,231.932667 275.245,246.094 C264.065,260.255333 248.785667,267.336 229.407,267.336 C215.991,267.336 203.879333,263.236667 193.072,255.038 C182.264667,246.839333 176.861,236.404667 176.861,223.734 C176.861,201.374 186.923,190.939333 207.047,192.43 L207.047,210.318 C207.047,222.243333 215.245667,228.206 231.643,228.206 C241.332333,228.206 249.717333,224.106667 256.798,215.908 C263.878667,207.709333 267.419,198.392667 267.419,187.958 C267.419,173.796667 258.288667,161.126 240.028,149.946 C221.767333,138.766 204.811,133.176 189.159,133.176 C169.035,133.176 152.078667,141.561 138.29,158.331 C124.501333,175.101 117.607,194.666 117.607,217.026 C117.607,252.802 138.849,279.261333 181.333,296.404 C212.637,309.82 248.785667,316.528 289.779,316.528 C347.915,316.528 404.187667,294.540667 458.597,250.566 C507.043667,211.808667 545.428333,163.734667 573.751,106.344 C588.657667,118.269333 616.607667,124.977333 657.601,126.468 C645.675667,125.722667 676.234333,125.35 749.277,125.35 C805.177,125.35 841.325667,139.138667 857.723,166.716 C868.903,185.349333 874.493,224.479333 874.493,284.106 C874.493,307.956667 876.729,326.217333 881.201,338.888 C881.201,339.633333 883.250667,342.242 887.35,346.714 C891.449333,351.186 893.499,354.54 893.499,356.776 C893.499,359.012 875.797333,369.260333 840.394,387.521 C804.990667,405.781667 783.935,417.148 777.227,421.62 C863.685667,463.358667 906.915,518.140667 906.915,585.966 C906.915,634.412667 891.263,676.151333 859.959,711.182 C842.816333,730.560667 808.158333,757.392667 755.985,791.678 C707.538333,824.472667 673.998333,853.540667 655.365,878.882 L136.613,878.882 C144.811667,873.664667 221.953667,833.789333 368.039,759.256 L575.987,759.256 L575.987,606.09 L572.633,608.326 C522.695667,641.120667 455.988333,678.76 372.511,721.244 C326.300333,743.604 257.357,777.889333 165.681,824.1 L162.327,815.156 C190.649667,793.541333 209.655667,773.976333 219.345,756.461 C229.034333,738.945667 233.879,713.418 233.879,679.878 L233.879,616.152 C195.121667,647.456 169.035,676.896667 155.619,704.474 Z" id="Shape" fill="url(#linearGradient-1)"></path>
    </g>
</svg>