<?xml version="1.0" encoding="UTF-8"?>
<svg width="1000px" height="1000px" viewBox="0 0 1000 1000" version="1.1" xmlns="http://www.w3.org/2000/svg" xmlns:xlink="http://www.w3.org/1999/xlink">
    <title>Pentastar</title>
    <g id="Pentastar" stroke="none" fill="none" fill-rule="evenodd">
        <path d="M496.530742,737.090929 C498.295878,735.788092 500.704122,735.788092 502.469258,737.090929 L767.691912,932.850046 L231.306912,932.850046 Z M953.777912,407.577046 L786.854912,921.312046 L684.152203,602.304878 C683.506259,600.298514 684.189254,598.111804 685.839739,596.827481 L686.027089,596.688547 L953.777912,407.577046 Z M45.254912,407.678046 L311.828088,596.693706 C313.603958,597.952893 314.360996,600.216408 313.699988,602.290615 L212.088912,921.140046 L45.254912,407.678046 Z M950.463912,387.644046 L619.779012,387.644798 C617.625875,387.644798 615.714539,386.266408 615.03475,384.223399 L509.591912,67.3330461 L950.463912,387.644046 Z M489.557912,67.2240461 L385.289446,384.207148 C384.614686,386.258459 382.699247,387.644798 380.539807,387.644798 L48.535912,387.644046 L489.557912,67.2240461 Z" id="Combined-Shape" fill="#000000"></path>
    </g>
</svg>