<?xml version="1.0" encoding="UTF-8"?>
<svg width="1000px" height="1000px" viewBox="0 0 1000 1000" version="1.1" xmlns="http://www.w3.org/2000/svg" xmlns:xlink="http://www.w3.org/1999/xlink">
    <title>Simplified Logo</title>
    <g id="Simplified-Logo" stroke="none" fill="none" fill-rule="evenodd" stroke-width="1">
        <g id="Group" transform="translate(17, 17)">
            <circle id="Oval" fill="#FFFFFF" cx="483" cy="483" r="483"></circle>
            <path d="M483,51 C721.587012,51 915,244.412988 915,483 C915,721.587012 721.587012,915 483,915 C244.412988,915 51,721.587012 51,483 C51,244.412988 244.412988,51 483,51 Z M483,119.178711 C473.246419,119.178711 464.873617,122.351562 457.881592,128.697266 C450.889567,135.042969 446.570964,143.26888 444.925781,153.375 C438.462565,200.380208 431.382406,239.952718 423.685303,272.092529 C415.9882,304.23234 405.911458,330.614014 393.455078,351.237549 C380.998698,371.861084 364.63501,388.25415 344.364014,400.416748 C324.093018,412.579346 298.387044,422.127279 267.246094,429.060547 C236.105143,435.993815 197.795898,441.986979 152.318359,447.040039 C141.977214,448.450195 133.45752,452.739421 126.759277,459.907715 C120.061035,467.076009 116.711914,475.595703 116.711914,485.466797 C116.711914,495.220378 120.002279,503.681315 126.583008,510.849609 C133.163737,518.017904 141.624674,522.248372 151.96582,523.541016 C189.922526,528.829102 222.708659,534.381592 250.324219,540.198486 C277.939779,546.015381 301.501139,553.154297 321.008301,561.615234 C340.515462,570.076172 356.87915,580.946126 370.099365,594.225098 C383.31958,607.504069 394.365804,624.044027 403.238037,643.844971 C412.11027,663.645915 419.777995,687.765462 426.241211,716.203613 C432.704427,744.641764 438.932617,778.426758 444.925781,817.558594 C446.80599,827.664714 451.242106,835.890625 458.234131,842.236328 C465.226156,848.582031 473.481445,851.754883 483,851.754883 C492.636068,851.754883 500.950114,848.552653 507.942139,842.148193 C514.934163,835.743734 519.19401,827.488444 520.72168,817.382324 C527.184896,770.377116 534.323812,730.804606 542.138428,698.664795 C549.953044,666.524984 560.059163,640.172689 572.456787,619.60791 C584.854411,599.043132 601.188721,582.650065 621.459717,570.428711 C641.730713,558.207357 667.466064,548.630046 698.665771,541.696777 C729.865479,534.763509 768.262858,528.711589 813.85791,523.541016 C823.846517,522.365885 832.248698,518.164795 839.064453,510.937744 C845.880208,503.710693 849.288086,495.220378 849.288086,485.466797 C849.288086,475.595703 845.909587,467.105387 839.152588,459.99585 C832.395589,452.886312 824.022786,448.567708 814.03418,447.040039 C768.674154,441.516927 730.482422,435.171224 699.458984,428.00293 C668.435547,420.834635 642.876465,411.198568 622.781738,399.094727 C602.687012,386.990885 586.440837,370.715332 574.043213,350.268066 C561.645589,329.820801 551.451335,303.615397 543.460449,271.651855 C535.469564,239.688314 527.889974,200.203939 520.72168,153.19873 C518.958984,143.092611 514.611003,134.896077 507.677734,128.609131 C500.744466,122.322184 492.518555,119.178711 483,119.178711 Z" id="Combined-Shape" fill="#000000"></path>
        </g>
    </g>
</svg>