<?xml version="1.0" encoding="UTF-8"?>
<svg width="1000px" height="1000px" viewBox="0 0 1000 1000" version="1.1" xmlns="http://www.w3.org/2000/svg" xmlns:xlink="http://www.w3.org/1999/xlink">
    <title>Rust Logo Uzbek Concept</title>
    <g id="Rust-Logo-Uzbek-Concept" stroke="none" fill="none" fill-rule="evenodd" stroke-width="1">
        <g id="Rust-Logo">
            <path d="M962.676963,545.045045 C974.259974,550.19305 985.842986,555.341055 997.425997,561.132561 C989.266474,527.912136 977.842395,495.579838 963.320463,464.607465 C976.190476,467.181467 988.416988,470.39897 1000,473.616474 C986.055356,442.447037 969.478818,412.523157 950.45045,384.169884 C962.676963,384.813385 975.546976,385.456885 988.416988,387.387387 C969.413172,358.926943 947.642823,332.414538 923.423423,308.236808 C935.649936,306.306306 948.519949,305.019305 961.389961,303.732304 C937.599824,279.215537 911.527443,257.021692 883.526384,237.451737 C895.752896,232.947233 907.979408,229.72973 920.20592,226.512227 C892.483906,206.464993 862.972453,189.016616 832.046332,174.388674 C843.629344,168.597169 854.568855,163.449163 866.151866,158.301158 C835.418711,143.080262 803.315335,130.799104 770.27027,121.621622 C780.566281,113.899614 790.862291,106.821107 801.158301,99.7425997 C768.419703,90.1171664 734.782777,83.8641482 700.772201,81.0810811 C709.137709,71.4285714 718.146718,62.4195624 727.155727,53.4105534 C693.166047,49.7734095 658.909537,49.34251 624.839125,52.1235521 C631.917632,41.8275418 638.352638,31.5315315 646.074646,20.5920206 C611.971232,23.1839076 578.163359,28.7826637 545.045045,37.3230373 C550.19305,25.7400257 555.341055,14.1570142 561.132561,2.57400257 C527.912102,10.73341 495.579792,22.1574925 464.607465,36.6795367 C467.181467,23.8095238 470.39897,12.2265122 473.616474,0 C442.446982,13.9446384 412.523094,30.5212705 384.169884,49.5498177 C384.602938,37.0619399 385.676853,24.6045305 387.387387,12.2267804 C358.941776,31.007943 332.428545,52.5634157 308.236808,76.5768447 C306.306306,64.3503325 305.019305,52.1238202 303.732304,39.2538074 C279.226716,62.8211803 257.03208,88.6790092 237.451737,116.473885 C233.128976,104.459331 229.476848,92.2139608 226.512227,79.7943479 C206.602171,107.606007 189.161276,137.104804 174.388674,167.953936 C168.597169,157.014425 163.449163,145.431414 158.301158,133.848402 C143.080291,164.58157 130.799135,196.684943 121.621622,229.729998 C113.899614,219.433988 106.821107,209.781478 99.7425997,198.841967 C90.1153824,231.799298 83.8627471,265.649772 81.0810811,299.871568 C71.4285714,290.862291 62.4195624,282.497051 53.4105534,272.844541 C49.7733147,306.834215 49.3424151,341.090735 52.1235521,375.161143 C41.8275418,368.082368 31.5315315,361.647362 20.5920206,353.925354 C23.1314463,388.035072 28.7309707,421.847585 37.3230373,454.954955 C25.7400257,449.80695 14.1570142,444.658945 2.57400257,438.867439 C10.7335021,472.087871 22.1575815,504.420171 36.6795367,535.392535 C24.4530245,532.818533 12.2265122,530.24453 0,526.383526 C13.9446471,557.552961 30.521185,587.476841 49.5495495,615.830116 C37.061663,615.397207 24.6042462,614.323292 12.2265122,612.612613 C31.0017342,641.261038 52.5560314,667.988366 76.5765766,692.406692 C64.3500644,693.693694 52.1235521,695.624196 39.2535393,696.267696 C62.8118071,720.975324 88.6684445,743.38441 116.473616,763.191763 C104.247104,766.409266 92.6640927,770.27027 79.7940798,773.487773 C107.453708,793.63005 136.974338,811.083853 167.953668,825.611326 C157.014157,831.402831 145.431145,837.194337 133.848134,842.342342 C164.716266,857.081389 196.795044,869.137842 229.72973,878.378378 C219.852916,886.245859 209.540554,893.550449 198.841699,900.2574 C231.63502,909.781756 265.240945,916.244434 299.227799,919.56242 C290.862291,928.571429 281.853282,937.580706 272.844273,946.589447 C306.618722,950.226524 340.661683,950.657447 374.517375,947.876448 C368.082368,958.172458 361.003861,969.111969 353.281853,979.407979 C387.43468,977.236889 421.282017,971.631598 454.311454,962.676963 C449.80695,974.259974 444.658945,985.842986 438.867439,997.425997 C472.026015,989.060579 504.338931,977.643348 535.392535,963.320463 C532.175032,976.190476 529.60103,988.416988 525.740026,1000 C557.048731,986.335758 586.997192,969.745604 615.186615,950.45045 C615.186615,962.676963 613.899614,975.546976 612.612613,988.416988 C641.073097,969.413226 667.585508,947.642873 691.763192,923.423423 C693.050193,935.649936 694.337194,948.519949 695.624196,961.389961 C720.520434,937.777292 742.9444,911.687871 762.548263,883.526384 C766.409266,895.752896 769.62677,907.979408 772.844273,920.20592 C793.354379,892.789868 810.831051,863.230558 824.967825,832.046332 C831.402831,843.629344 836.550837,854.568855 841.698842,866.151866 C856.99195,835.522503 869.068512,803.390221 877.734878,770.27027 C885.456885,780.566549 893.178893,790.862291 900.2574,801.158301 C909.882972,768.419736 916.135993,734.782796 918.918919,700.772201 C927.927928,709.137387 937.580438,718.146718 946.589447,727.155727 C950.017069,693.146105 950.232521,658.88917 947.232947,624.839125 C958.13365,631.320279 968.660818,638.410005 978.764479,646.074646 C977.386284,611.883378 971.986597,577.973345 962.676963,545.045045 Z" id="Path" fill="#FFFFFF" fill-rule="nonzero"></path>
            <path d="M937.536054,519.997277 C948.47619,523.86113 960.059864,528.368958 971,532.876787 C961.56771,501.967481 949.287791,472.00133 934.318367,443.364193 C945.902041,445.940095 957.485714,447.872022 969.069388,450.447924 C954.592636,421.441238 937.121968,394.030309 916.942857,368.663036 C929.170068,368.663036 940.753741,368.663036 952.980952,369.307012 C933.705081,343.408807 911.934906,319.466883 887.983673,297.825732 C899.567347,295.24983 911.15102,293.961879 923.378231,292.029952 C899.656796,270.240173 874.026761,250.627393 846.797279,233.428182 C858.380952,228.920354 869.321088,225.056501 880.904762,221.192648 C853.617604,203.525885 824.748809,188.434905 794.670748,176.114364 C804.967347,170.318852 815.263946,164.522805 826.204082,159.371001 C796.463475,146.795841 765.667741,136.882777 734.178231,129.748128 C743.187755,122.020422 752.197279,114.292716 761.85034,107.208986 C730.390414,99.7632556 698.271757,95.4490917 665.963265,94.3294758 C673.685714,85.3138189 681.408163,76.298162 689.77415,67.2825051 C657.549505,65.2998667 625.206978,66.5944484 593.243537,71.1463581 C598.627898,60.6993831 604.645472,50.5915796 611.262585,40.8795099 C579.352505,44.697867 547.886866,51.5991402 517.306122,61.4867257 C520.924028,50.077219 525.221982,38.8949323 530.176871,28 C499.247516,37.3231808 469.291019,49.615862 440.72517,64.7066031 C442.655782,53.1150442 444.586395,40.8795099 447.160544,29.287951 C418.377278,43.7790841 391.198862,61.262816 366.07483,81.449966 C366.07483,69.8584071 366.07483,57.6228727 366.718367,45.3873383 C340.823881,64.8990802 316.89905,86.8990259 295.285714,111.072839 C292.711565,98.8373043 290.780952,87.2457454 289.493878,75.6541865 C267.228693,98.9040872 247.390925,124.365502 230.288435,151.643295 C225.855056,140.687537 221.988707,129.510479 218.704762,118.156569 C200.926721,145.163706 185.838622,173.850609 173.657143,203.80531 C167.240922,193.643624 161.438696,183.10649 156.281633,172.250511 C143.715056,202.011373 133.808736,232.828068 126.678912,264.339006 C118.956463,255.967325 111.877551,246.307692 104.155102,236.64806 C96.7563327,268.13714 92.4456597,300.273515 91.2843537,332.600408 C82.2748299,324.872703 73.2653061,317.144997 64.2557823,308.773315 C62.5127133,341.041772 64.021917,373.403867 68.7605442,405.369639 C57.8204082,399.57386 48.1673469,393.134105 37.8707483,386.69435 C41.6865683,418.836812 48.5827137,450.537546 58.4639456,481.358747 C47.1006624,477.629447 35.931918,473.330851 25,468.479238 C34.3169399,499.429611 46.6012547,529.406491 61.6816327,557.991831 C49.9803581,556.250433 38.3802127,553.885831 26.9306122,550.908101 C41.4230933,579.763205 58.6639716,607.151731 78.4136054,632.692988 C66.829932,632.692988 54.6027211,632.692988 43.0190476,632.049013 C62.1108327,658.098442 83.8973153,682.058301 108.016327,703.530293 C96.4326531,706.106195 84.8489796,707.394146 72.6217687,709.326072 C96.0796947,731.61677 121.738195,751.467097 149.202721,768.571818 C137.619048,772.435671 126.678912,776.299201 115.095238,780.163376 C142.235801,797.694954 170.878438,812.780288 200.685714,825.241661 C191.032653,831.03744 180.092517,837.477195 169.795918,842.628999 C199.412922,855.378033 230.246076,865.087379 261.821769,871.607897 C252.812245,879.335924 243.802721,887.063308 234.14966,894.147039 C265.340631,901.863785 297.274174,906.182066 329.393197,907.026549 C322.180328,916.467072 314.445818,925.496811 306.22585,934.073519 C338.450776,936.02938 370.790604,934.734906 402.756463,930.209666 C396.964626,940.513274 390.529252,950.816882 384.093878,961.12049 C416.161609,956.991517 447.812721,950.096789 478.693878,940.513274 C474.966976,951.884244 470.671308,963.060584 465.823129,974 C496.752481,964.676811 526.708977,952.38413 555.27483,937.293397 C553.534812,949.002671 551.171817,960.610724 548.195918,972.068074 C577.18288,957.581481 604.575163,940.098919 629.92517,919.906059 C629.92517,932.141593 629.92517,943.733474 629.281633,955.968686 C655.162244,936.679723 679.087884,914.894726 700.714286,890.927161 C703.288435,902.51872 704.57551,914.110279 706.506122,926.345813 C728.631989,902.743885 748.45697,877.083247 765.711565,849.71273 C769.572789,861.304289 773.434014,872.251872 777.295238,883.843431 C794.950073,856.53775 810.030792,827.649295 822.342857,797.550715 C828.134694,807.854323 834.570068,818.157931 839.718367,829.105514 C852.36831,799.434827 862.068161,768.589873 868.677551,737.017018 C876.4,746.032675 884.122449,755.048332 891.201361,764.707965 C898.955938,733.285507 903.271574,701.112138 904.072109,668.755616 C913.515527,676.191098 922.538948,684.145714 931.10068,692.582709 C933.08197,660.336128 931.788269,627.971585 927.239456,595.986385 C937.536054,601.138189 947.832653,607.577944 958.129252,614.017699 C954.2454,582.097448 947.350236,550.616845 937.536054,519.997277 Z" id="Path" fill="#000000" fill-rule="nonzero"></path>
            <path d="M130.001671,499.850575 C129.933686,560.155517 144.476581,619.574844 172.380038,673 L178.158906,641.45977 C158.849893,596.748559 148.80128,548.57159 148.622468,499.850575 C148.317786,409.102792 183.331768,321.814054 246.221132,256.54023 L252,225 C174.077581,294.971018 129.686151,394.980667 130.001671,499.850575 L130.001671,499.850575 Z" id="Path" fill="#AC1F2D" fill-rule="nonzero"></path>
            <path d="M830.057177,333 C830.658384,347.412986 830.011756,361.850953 828.124522,376.152542 C843.415053,415.814901 851.276522,457.95125 851.316388,500.457627 C851.362053,556.226572 838.111562,611.203247 812.663278,660.830508 L803,713 C881.375007,600.997424 891.772415,454.972769 830.057177,333 L830.057177,333 Z" id="Path" fill="#AC1F2D" fill-rule="nonzero"></path>
            <path d="M500.639932,148.518494 C550.327154,148.4343 599.459463,158.884127 644.749147,179.168722 C660.832765,179.807268 677.559727,181.084361 693,183 C577.389775,113.968124 433.238618,112.259025 316,178.530175 L357.817406,178.530175 C402.796805,158.754553 451.445208,148.531934 500.639932,148.518494 Z" id="Path" fill="#0099B5" fill-rule="nonzero"></path>
            <path d="M500.821997,851.862046 C433.725994,851.795768 368.042515,832.763136 311.487699,797 L278,797 C409.612459,895.666667 591.387541,895.666667 723,797 L690.156295,797 C633.601473,832.763123 567.917998,851.795754 500.821997,851.862046 Z" id="Path" fill="#1EB53A" fill-rule="nonzero"></path>
            <path d="M774.64564,395.248017 C801.724637,241.305758 723.066597,231 607.013752,231 L303.342141,231 L284,341.142788 L721.132383,341.142788 L629.579583,369.483623 C631.276707,380.603328 631.058654,391.931039 628.934845,402.977336 C619.263775,454.506126 596.697944,468.032433 565.10578,468.032433 L458.724006,468.032433 L551.566282,637.433651 L532.868879,745 L746.277166,745 L764.974569,637.433651 L718.553431,637.433651 L663.750699,538.884841 C727.579764,517.628893 759.816665,476.40613 774.64564,395.248017 Z" id="Path" fill="#FFFFFF" fill-rule="nonzero"></path>
            <polygon id="Path" fill="#FFFFFF" fill-rule="nonzero" points="466.075758 382 319.833333 407.145648 278.782828 637.325044 232.60101 637.325044 214 745 448.757576 745 468 637.325044 421.176768 637.325044"></polygon>
        </g>
    </g>
</svg>