<?xml version="1.0" encoding="UTF-8"?>
<svg width="500px" height="500px" viewBox="0 0 500 500" version="1.1" xmlns="http://www.w3.org/2000/svg" xmlns:xlink="http://www.w3.org/1999/xlink">
    <title>Grayscale Logo</title>
    <defs>
        <path d="M192.528249,45.038398 C259.004753,45.038398 316.793012,82.2940323 346.187287,137.069111 C333.840834,153.001079 319.908205,170.005666 304.889545,187.453602 C319.951074,151.056063 322.337484,123.196571 308.790681,110.167826 C287.170099,89.3876195 230.310681,111.55508 162.833886,161.953872 C126.251803,135.410127 91.8560709,115.201984 62.7904628,102.988429 C94.6997563,67.4060802 140.998955,45.0240964 192.528249,45.0240964 L192.528249,45.038398 Z M360.87728,174.153126 C364.749836,188.612031 366.836158,203.814618 366.836158,219.489157 C366.836158,227.526649 366.293143,235.421125 365.235692,243.172586 L365.221402,243.329903 L365.135663,243.944871 L365.064214,244.488332 L365.049924,244.559839 L364.964184,245.174808 L364.692677,247.019712 L364.678387,247.105522 L364.592648,247.634681 L364.492618,248.235347 L364.464039,248.406966 L364.378299,248.850316 L364.27827,249.465284 L364.235401,249.708411 L364.163951,250.065951 L364.049632,250.666617 L363.706675,252.482919 L363.592356,253.083585 C359.233944,275.494172 350.545699,296.331585 338.427884,314.737727 L338.570783,314.737727 C326.124301,333.801743 310.06248,350.291473 291.342742,363.205806 C281.396989,341.681917 266.24972,317.025981 246.786908,290.725363 C284.169225,257.588585 325.1383,216.643141 360.87728,174.153126 L360.87728,174.153126 Z M99.7583724,319.600267 C82.4247526,296.417394 0.558052029,183.949713 37.9117884,147.33765 C56.5029173,129.13173 100.187069,137.898603 156.331992,166.88792 C134.282713,183.778094 111.204563,203.571491 87.926355,225.781856 C111.804738,207.89057 223.680179,126.714762 260.033624,163.884587 C272.951672,177.07065 272.280048,202.913618 260.47661,236.879887 C250.430827,247.606078 240.156406,258.275061 229.796246,268.729522 C215.44921,250.866839 199.31594,232.460697 181.667943,213.940142 C189.841752,224.852252 207.761257,248.378363 223.437251,275.122331 C207.118212,291.397537 190.627695,307.086378 174.380106,321.659695 C150.473143,338.478362 124.29409,354.653457 97.9721379,366.066123 C48.3005283,333.901854 18.220339,278.35449 18.220339,219.503459 L18.220339,219.489157 C41.9415334,255.071506 70.378387,288.766045 99.7583724,319.600267 Z M236.555357,299.678156 C243.886064,315.038061 249.430536,330.540981 251.18819,344.599441 C258.14736,400.161107 173.436974,403.150139 125.966005,382.512949 C166.020528,356.898806 204.917571,326.236203 223.408671,310.833394 C227.709924,307.243696 232.111206,303.525283 236.555357,299.663855 L236.555357,299.678156 Z" id="path-1"></path>
        <path d="M402.523424,80.786681 C358.873375,163.348252 287.904439,230.49394 216.233551,290.110608 C181.794851,318.752374 76.774006,400.082964 24.8007931,403.876101 C15.8759553,404.520219 9.52972228,402.630807 5.54721038,398.72316 C1.02032634,394.285905 -0.641441218,387.257866 0.218093725,378.268846 C1.83688454,361.464532 12.8532574,338.863158 30.8318633,315.231197 C32.9950262,312.368452 35.3157706,312.425707 36.0033985,315.345707 C36.6910265,318.265707 35.5020032,322.960609 33.3245146,325.80904 C18.4259089,345.404531 9.4294432,362.652571 8.34069894,373.903159 C7.89660589,378.454924 8.95669899,382.219434 11.6785596,384.896101 C14.9304668,388.088062 20.3598626,389.61963 28.2246073,389.047081 C116.957265,382.591591 341.811606,138.571192 368.729375,64.0109943 C373.356538,54.6927587 384.688074,50.8853077 394.014028,55.5086411 C403.339982,60.1319746 407.150587,71.4541317 402.523424,80.7723673 L402.523424,80.786681 Z" id="path-2"></path>
        <polygon id="path-3" points="406.306508 0 413.344039 6.71106576 423.061192 6.95125127 423.286844 16.6717002 430 23.7218514 423.286844 30.7720026 423.061192 40.5065801 413.344039 40.732637 406.306508 47.4578313 399.28308 40.732637 389.565927 40.5065801 389.326172 30.7720026 382.627119 23.7218514 389.326172 16.6717002 389.565927 6.95125127 399.28308 6.71106576"></polygon>
    </defs>
    <g id="Grayscale-Logo" stroke="none" fill="none" fill-rule="evenodd" stroke-width="1">
        <g id="Logo" transform="translate(56, 28)">
            <g id="Shape">
                <use fill="#FFFFFF" xlink:href="#path-1"></use>
                <use fill="#6D8CE8" xlink:href="#path-1"></use>
            </g>
            <g id="Path">
                <use fill="#FFFFFF" xlink:href="#path-2"></use>
                <use fill="#6D8CE8" xlink:href="#path-2"></use>
            </g>
            <g id="Path">
                <use fill="#FFFFFF" xlink:href="#path-3"></use>
                <use fill="#EE8018" xlink:href="#path-3"></use>
            </g>
        </g>
    </g>
</svg>