<?xml version="1.0" encoding="UTF-8"?>
<svg width="500px" height="500px" viewBox="0 0 500 500" version="1.1" xmlns="http://www.w3.org/2000/svg" xmlns:xlink="http://www.w3.org/1999/xlink">
    <title>Static</title>
    <defs>
        <linearGradient x1="100%" y1="46.6802239%" x2="1.52655666e-14%" y2="50%" id="linearGradient-1">
            <stop stop-color="#202CDE" offset="0%"></stop>
            <stop stop-color="#035AFF" offset="100%"></stop>
        </linearGradient>
        <path d="M0,275.383456 L0,433.514845 C0,458.010283 13.6345725,479.454857 33.700867,490.688586 C48.9842568,491.144543 67.4892274,487.392272 88.526,479.823138 C131.429568,464.422054 184.787226,433.222592 243.138155,389.532503 C243.617568,389.205307 244.272392,389.287053 244.623213,389.760587 C244.956451,390.169529 244.892049,390.812485 244.500341,391.163188 C228.082714,406.833229 211.68839,421.655526 195.533667,435.57798 C179.074942,449.699082 162.844377,462.896622 146.982005,475.042053 L146.982005,475.042053 L137.720834,482.009104 L137.720834,482.032611 L137.697319,482.032611 C129.757447,487.988425 121.881766,493.640339 114.14654,499 L316.386485,499 C331.360152,481.763654 330.512334,451.37064 316.386485,412.111144 C300.974503,369.221785 269.770271,315.882061 226.059772,257.527449 C225.708951,257.077422 225.814028,256.393593 226.287721,256.04289 C226.720316,255.715694 227.322601,255.774144 227.691006,256.165721 L227.691006,256.165721 C243.366104,272.601337 258.216899,288.972573 272.097215,305.115936 C285.85466,321.119103 298.705817,336.894185 310.568912,352.312847 C331.108688,312.310859 344.351552,276.809564 349.075775,248.128982 C353.653822,220.413046 350.251111,199.155472 337.79145,186.431254 C321.023002,169.300161 289.672595,169.568906 248.62821,184.309668 C205.747945,199.734047 152.384567,230.910214 94.0160552,274.600303 C93.5601571,274.950795 92.881818,274.869049 92.5309968,274.395726 C92.2210624,273.963065 92.262161,273.343616 92.653869,272.992913 L92.653869,272.992913 C109.089079,257.322872 125.465819,242.494646 141.620542,228.601629 C157.605574,214.848808 173.403544,202.001759 188.850905,190.142651 C148.794582,169.609991 113.298722,156.371366 84.626292,151.648731 C56.8891735,147.072222 35.61852,150.450706 22.8959555,162.905967 C5.75317101,179.668779 6.02221867,211.014579 20.767725,252.045169 C36.1797068,294.934317 67.3841505,348.274041 111.094438,406.605145 C111.445259,407.078679 111.340182,407.739213 110.866489,408.089916 C110.433894,408.417112 109.831608,408.358662 109.463204,407.984663 C93.8056895,391.554765 78.9781978,375.183529 65.0745777,359.034236 C50.925425,342.581254 37.7234472,326.355933 25.5737211,310.481527 L25.5737211,310.481527 L18.5634408,301.223257 L18.5634408,301.223257 L18.5634408,301.199961 C12.0268539,292.456098 5.85845974,283.858362 0,275.383456 L0,275.383456 Z M499,0 L65.5388174,0 C29.4878791,0 0,29.4876671 0,65.5388174 L0,80.1102289 C11.8628911,81.9234687 25.03034,85.4333754 39.2916674,90.4873443 C84.1932508,106.4216 140.121367,137.910084 200.167477,181.390112 C248.953061,145.02909 293.860367,119.027591 330.2801,106.129108 C365.857328,93.5000142 393.467322,93.3537681 408.922145,108.194145 C426.423989,124.99422 425.72222,158.588436 410.121151,202.559767 C394.169303,247.467285 362.681032,303.389467 319.201003,363.417985 C355.562025,412.244687 381.563524,457.128466 394.479387,493.571514 C395.116936,495.390688 395.737104,497.20414 396.316154,499 L433.437656,499 C469.488806,499 499,469.512121 499,433.461183 L499,0 L499,0 Z" id="path-2"></path>
    </defs>
    <g id="Static" stroke="none" fill="none" fill-rule="evenodd" stroke-width="1">
        <g id="Shape">
            <use fill="#363636" xlink:href="#path-2"></use>
            <use fill="url(#linearGradient-1)" xlink:href="#path-2"></use>
        </g>
    </g>
</svg>