<?xml version="1.0" encoding="UTF-8"?>
<svg width="1000px" height="1000px" viewBox="0 0 1000 1000" version="1.1" xmlns="http://www.w3.org/2000/svg" xmlns:xlink="http://www.w3.org/1999/xlink">
    <title>Xinux Bots</title>
    <g id="Xinux-Bots" stroke="none" fill="none" fill-rule="evenodd" stroke-width="1">
        <g id="Xin" transform="translate(27, 86)">
            <polygon id="Path" fill="#5277C3" fill-rule="nonzero" points="534.662595 307.080933 469.625107 193.870045 581 0 462.749807 0 410.5 90.9510549 358.250091 0 240 0 475.537504 410"></polygon>
            <polygon id="Path" fill="#7CAEDC" fill-rule="nonzero" points="662.722181 302.789161 886 302.789161 826.73483 199.870127 721.987351 199.870127 774.36109 108.919034 715.09592 6 479 416 597.530494 416"></polygon>
            <polygon id="Path" fill="#7CAEDC" fill-rule="nonzero" points="411.009744 306.701336 281.231551 306.701336 170.110819 114 111.120732 216.298562 163.251376 306.701336 58.9900875 306.701336 0 409 470 409"></polygon>
            <polygon id="Path" fill="#5277C3" fill-rule="nonzero" points="466 412 347.469506 412 282.277819 525.210839 59 525.210839 118.26517 628.129873 223.012649 628.129873 170.63891 719.080966 229.90408 822"></polygon>
            <polygon id="Path" fill="#7CAEDC" fill-rule="nonzero" points="410.337405 520.919067 475.374893 634.129955 364 828 482.250193 828 534.5 737.048945 586.749909 828 705 828 469.462496 418"></polygon>
            <polygon id="Path" fill="#5277C3" fill-rule="nonzero" points="834.879268 611.701438 782.748624 521.298664 887.009912 521.298664 946 419 476 419 534.990256 521.298664 664.768449 521.298664 775.889181 714"></polygon>
        </g>
    </g>
</svg>