<?xml version="1.0" encoding="UTF-8"?>
<!DOCTYPE svg PUBLIC "-//W3C//DTD SVG 1.1//EN" "http://www.w3.org/Graphics/SVG/1.1/DTD/svg11.dtd">
<!-- Creator: CorelDRAW 2021.5 -->
<svg xmlns="http://www.w3.org/2000/svg" xml:space="preserve" width="655.143mm" height="695.749mm" version="1.1" style="shape-rendering:geometricPrecision; text-rendering:geometricPrecision; image-rendering:optimizeQuality; fill-rule:evenodd; clip-rule:evenodd"
viewBox="0 0 6804.8 7226.57"
 xmlns:xlink="http://www.w3.org/1999/xlink"
 xmlns:xodm="http://www.corel.com/coreldraw/odm/2003">
 <defs>
  <style type="text/css">
   <![CDATA[
    .fil2 {fill:#EF7F1A}
    .fil1 {fill:#333271}
    .fil0 {fill:#EF7F1A;fill-rule:nonzero}
    .fil3 {fill:#333271;fill-rule:nonzero}
   ]]>
  </style>
 </defs>
 <g id="Слой_x0020_1">
  <metadata id="CorelCorpID_0Corel-Layer"/>
  <g id="_2382572673568">
   <path class="fil0" d="M5250.1 5938.99l-55.85 0 0.07 -362.68 -103.5 273.16c-22.59,54.05 -96.19,45.74 -111.85,0l-104.64 -255.86 0.27 97.88 0 145.53 0 3.04 0 3.04 0 3.05 0 0.85 0 48.21c-0.33,28.77 -15.36,42.6 -43.78,43.78l-47.1 0 0 -75.78 0 -327.97 0.02 -1.04 0.04 -1.02 0.02 0 0.06 -1.04 0.13 -1.02 0.13 -1.02 0.18 -1.02 0.18 -1.02 0.24 -1.02 0.25 -1.02 0.27 -1 0.02 0 0.31 -1 0.33 -1 0.36 -0.98 0.38 -0.98 0.44 -0.98 0.42 -0.96 0.47 -0.96 0.47 -0.94 0.51 -0.95 0.54 -0.93 0.55 -0.93 0.56 -0.93 0.6 -0.89 0.62 -0.89 0.02 0 0.62 -0.87 0.65 -0.87 0.67 -0.84 0.71 -0.84 0.71 -0.84 0.73 -0.8 0.75 -0.8 0.76 -0.78 0.78 -0.76 0.8 -0.74 0.8 -0.73 0.82 -0.71 0.84 -0.69 0.85 -0.69 0.87 -0.64 0.87 -0.65 0.89 -0.62 0.91 -0.6 0.91 -0.56 0.93 -0.56 0.93 -0.53 0.95 -0.51 0.95 -0.49 0.96 -0.45 0.96 -0.44 0.98 -0.4 0.96 -0.4 0.02 0 0.98 -0.35 0.98 -0.34 0.02 0 0.98 -0.31 1.02 -0.29 1.02 -0.25 1 -0.24 0.02 0 1 -0.18 0.02 0 1.02 -0.18 1.02 -0.13 1.02 -0.11 1.04 -0.09 1.02 -0.04 1.04 -0.02 10.78 0 93.05 0 106.8 285.37 103.33 -261.07c8.09,-16.23 21.08,-24.37 39.11,-24.3l69.71 0 43.52 0 0 403.82c-0.11,29.97 -12.21,43.71 -43.78,43.78zm-761.94 7.78c-64.13,0 -116.34,-20.88 -156.72,-62.53 -40.38,-41.78 -60.52,-96.12 -60.52,-163.14 0,-70.73 20.44,-127.94 61.46,-171.64 41.03,-43.67 95.26,-65.62 162.92,-65.62 63.91,0 115.6,20.99 155.02,62.75 39.44,41.87 59.13,97.06 59.13,165.47 0,70.33 -20.44,127.12 -61.37,170.15 -40.8,43.05 -94.17,64.57 -159.92,64.57zm4.38 -376.11c-35.38,0 -63.5,13.21 -84.29,39.85 -20.77,26.53 -31.22,61.59 -31.22,105.26 0,44.32 10.45,79.38 31.22,105.29 20.79,25.77 48.05,38.65 81.72,38.65 34.84,0 62.33,-12.58 82.78,-37.62 20.35,-25.13 30.58,-59.88 30.58,-104.4 0,-46.47 -9.9,-82.58 -29.62,-108.37 -19.81,-25.79 -46.87,-38.67 -81.18,-38.67zm-288.04 361.64c-29.6,10 -61.15,14.47 -103.75,14.47 -68.62,0 -122.63,-20.14 -161.94,-60.52 -39.42,-40.4 -59.03,-94.17 -59.03,-161.43 0,-71.58 22.06,-129.67 66.26,-174.19 44.21,-44.54 101.66,-66.8 172.19,-66.8 26.48,0 44.85,1.67 64.06,5.02 26.41,4.6 45.87,13.54 46.43,45.49l0 26.2c-2.65,26.97 -25.13,24.35 -37.38,20.55 -20.3,-6.31 -41.71,-10.43 -65,-10.43 -41.98,0 -75.96,13.21 -101.77,39.64 -25.77,26.42 -38.67,62.22 -38.67,107.4 0,43.27 12.16,77.78 36.55,103.46 24.3,25.68 57.1,38.56 98.35,38.56 27.88,0 46.01,-7.11 71.71,-12.85 15.08,-3.36 36.27,3.53 36.22,19.72l0 23.57c-0.84,26.3 -8.83,36.96 -24.22,42.14zm-592.26 14.47c-64.13,0 -116.34,-20.88 -156.72,-62.53 -40.4,-41.78 -60.54,-96.12 -60.54,-163.14 0,-70.73 20.46,-127.94 61.48,-171.64 41.03,-43.67 95.26,-65.62 162.92,-65.62 63.91,0 115.6,20.99 155.01,62.75 39.44,41.87 59.14,97.06 59.14,165.47 0,70.33 -20.45,127.12 -61.37,170.15 -40.82,43.05 -94.19,64.57 -159.92,64.57zm4.36 -376.11c-35.36,0 -63.5,13.21 -84.27,39.85 -20.77,26.53 -31.22,61.59 -31.22,105.26 0,44.32 10.45,79.38 31.22,105.29 20.77,25.77 48.05,38.65 81.72,38.65 34.84,0 62.33,-12.58 82.78,-37.62 20.35,-25.13 30.58,-59.88 30.58,-104.4 0,-46.47 -9.9,-82.58 -29.62,-108.37 -19.83,-25.79 -46.89,-38.67 -81.2,-38.67zm-267.22 2.76l-157.91 0 0 109.97 101.28 0c21.94,0 43.85,21.93 43.85,43.85l0 37.87 -145.13 0 0 173.88 -57.05 0c-21.92,0 -43.87,-21.92 -43.87,-43.83l0 -403.77 214.99 0c21.92,0 43.83,21.92 43.83,43.85l0 38.18zm-415.31 365.71c-16.52,-0.29 -39.36,3.69 -64.73,-26.39l-167.34 -255.04c-10.76,-16.41 -18.32,-28.77 -22.48,-37.07l-1.16 0c1.58,15.76 2.43,39.96 2.43,72.35l0 211.84c0,15.56 -10.87,34.17 -25.7,34.17l-25.7 0 -43.85 0 0 -43.83 0 -26.41 0 -333.51c4.42,-33.6 37.91,-44.58 60.03,-43.83 24.39,-0.74 45.16,2.24 65.6,25.97l160.65 246.46c8.1,12.36 15.56,24.5 22.48,36.53l1.29 0c-1.71,-10.32 -2.54,-30.89 -2.54,-61.48l0 -204.01c0,-21.55 21.92,-43.49 44,-43.49l51.21 0 0.04 43.85 0 277.74 0 82.18c-1.24,32.62 -33.77,44.36 -54.23,43.98zm-494.02 -0.15l-57.06 0c0,-134.59 0,-269.16 0,-403.75 0,-21.94 21.93,-43.85 43.85,-43.85l57.05 0 0 403.88c0,21.81 -21.92,43.72 -43.83,43.72zm-166.32 0l-273.29 0c-39.22,0 -55.76,-45.21 -29.73,-76.98l215.28 -288.59 -212.88 0 0 -38.11c0,-21.99 21.93,-43.92 44.11,-43.92l248.93 0 50.36 0c1.69,33.8 -5.18,63.33 -22.57,87.59l-201.81 278.17 225.02 0 0 38.13c0,21.79 -21.92,43.71 -43.42,43.71zm-376.16 -193.82c0,134.34 -62.64,201.59 -187.84,201.59 -121.6,0 -182.35,-65.62 -182.31,-196.9l0.06 -214.62c0,-21.94 12.54,-43.85 43.87,-43.85l57.19 0 0 259.66c0,72.44 28.33,108.67 84.92,108.67 55.5,0 83.32,-34.95 83.32,-104.95l0 -219.53c0,-21.94 22.33,-43.85 43.76,-43.85l57.03 0 0 253.79z"/>
   <path class="fil1" d="M3475.09 541.1c708.67,0 1334.84,353.03 1712.37,892.77 195.61,-272.27 335.87,-506.21 395.29,-670.9 55.38,-111.51 190.68,-157.01 302.19,-101.63 111.51,55.38 157.01,190.67 101.63,302.18 -521.67,987.58 -1369.81,1790.73 -2226.45,2503.83 -411.53,342.57 -1666.75,1315.47 -2287.84,1360.72 -106.75,7.78 -182.48,-14.84 -230.14,-61.63 -54.02,-53.04 -73.98,-137.17 -63.62,-244.69 19.37,-201.04 150.97,-471.35 365.81,-753.99 25.92,-34.16 53.62,-33.52 61.87,1.45 8.25,34.96 -6.07,91 -31.99,125.16 -178.13,234.34 -285.54,440.72 -298.51,575.35 -5.25,54.46 7.33,99.5 39.89,131.47 38.92,38.21 103.84,56.45 197.71,49.61 201.39,-14.67 461.55,-132.01 752.95,-318.32 -549.7,-391.19 -879.51,-1028.94 -879.51,-1702.97l0 -0.18c284.27,426.06 624.99,829.42 976.88,1198.51 -207.76,-277.49 -1188.57,-1623.92 -740.98,-2062.15 222.68,-218 746.07,-113.06 1418.79,234.03 -264.21,202.15 -540.64,439.1 -819.54,705.01 286.09,-214.26 1626.44,-1186.05 2062.09,-740.98 94.59,96.57 128.37,249.75 108,447.16 211.3,-235.98 407.15,-468.98 577.36,-686.74 19.17,-179.43 -12.46,-318 -101.31,-403.31 -259,-248.71 -940.27,16.61 -1748.75,619.96 -438.28,-317.79 -850.42,-559.6 -1198.63,-705.83 382.37,-425.88 937.11,-693.9 1554.43,-693.9zm254.7 2566.27c18.36,-18.18 36.66,-36.44 54.94,-54.72 -135.67,-161.03 -282.64,-324.95 -439.73,-489.7 78.15,104.35 230.8,304.85 384.78,544.42zm1762.31 -1020.66c46.47,173.11 71.4,355.03 71.4,542.8 0,96.16 -6.49,190.8 -19.13,283.57l-0.23 1.81 -1.05 7.31 -0.88 6.55 -0.12 0.82 -1.11 7.37 -3.33 21.99 -0.12 0.99 -1.05 6.32 -1.23 7.25 -0.29 1.99 -0.94 5.32 -1.23 7.31 -0.47 2.92 -0.82 4.33 -1.29 7.25 -4.04 21.76 -1.4 7.25c-52.29,268.25 -156.35,517.78 -301.53,738l1.7 0c-149.1,228.3 -341.6,425.65 -565.91,580.3 -119.14,-257.71 -300.58,-552.81 -533.89,-867.75 447.84,-396.77 938.79,-886.95 1366.96,-1395.49zm-1489.43 1502.61c87.76,183.94 154.29,369.48 175.38,537.77 83.39,665.22 -931.52,700.94 -1500.38,453.94 479.93,-306.68 945.89,-673.66 1167.41,-858.06 51.61,-42.96 104.21,-87.57 157.58,-133.65z"/>
   <polygon class="fil2" points="6035.69,0 6121.09,81.38 6239.02,84.22 6241.86,202.15 6323.24,287.55 6241.86,372.94 6239.02,490.87 6121.09,493.71 6035.69,575.09 5950.29,493.71 5832.36,490.87 5829.52,372.94 5748.14,287.55 5829.52,202.15 5832.36,84.22 5950.29,81.38 "/>
   <path class="fil3" d="M183.79 6619.27c0,38.81 4.76,73.82 14.27,105.02 9.51,31.2 23.21,58.03 41.1,80.48 17.88,22.45 39.76,39.76 65.64,51.94 25.88,12.18 55.56,18.27 89.04,18.27 32.72,0 62.21,-6.09 88.47,-18.27 26.26,-12.18 48.33,-29.49 66.21,-51.94 17.88,-22.45 31.58,-49.28 41.1,-80.48 9.51,-31.2 14.27,-66.21 14.27,-105.02 0,-38.81 -4.76,-74.01 -14.27,-105.59 -9.51,-31.58 -23.21,-58.6 -41.1,-81.05 -17.88,-22.45 -39.95,-39.76 -66.21,-51.94 -26.26,-12.18 -55.75,-18.26 -88.47,-18.26 -33.49,0 -63.17,6.28 -89.04,18.84 -25.88,12.56 -47.76,30.06 -65.64,52.51 -17.88,22.45 -31.58,49.47 -41.1,81.05 -9.51,31.58 -14.27,66.4 -14.27,104.45zm603.88 0c0,67.73 -10.08,127.28 -30.25,178.65 -20.17,51.37 -47.76,94.37 -82.76,129 -35.01,34.63 -76.67,60.69 -125,78.2 -48.33,17.5 -100.27,26.26 -155.82,26.26 -54.03,0 -105.02,-8.75 -152.97,-26.26 -47.95,-17.5 -89.8,-43.57 -125.57,-78.2 -35.77,-34.63 -63.93,-77.63 -84.47,-129 -20.55,-51.37 -30.82,-110.92 -30.82,-178.65 0,-67.73 10.65,-127.28 31.96,-178.65 21.31,-51.37 50.04,-94.56 86.19,-129.57 36.15,-35.01 78.01,-61.26 125.57,-78.77 47.57,-17.5 97.6,-26.26 150.11,-26.26 54.03,0 105.02,8.75 152.97,26.26 47.95,17.5 89.8,43.76 125.57,78.77 35.77,35.01 63.93,78.2 84.47,129.57 20.55,51.37 30.82,110.92 30.82,178.65zm521.69 100.46c0,-52.51 -11.8,-94.56 -35.39,-126.14 -23.59,-31.58 -58.6,-47.37 -105.02,-47.37 -15.22,0 -29.3,0.57 -42.24,1.71 -12.94,1.14 -23.59,2.47 -31.96,3.99l0 307.08c10.65,6.85 24.54,12.56 41.67,17.12 17.12,4.57 34.44,6.85 51.94,6.85 80.67,0 121.01,-54.41 121.01,-163.24zm173.52 -4.57c0,46.42 -5.71,88.66 -17.12,126.71 -11.42,38.05 -28.16,70.78 -50.23,98.17 -22.07,27.4 -49.47,48.71 -82.19,63.93 -32.72,15.22 -70.4,22.83 -113.01,22.83 -23.59,0 -45.66,-2.28 -66.21,-6.85 -20.55,-4.57 -40.33,-11.03 -59.36,-19.41l0 226.03 -170.09 0 0 -791.1c15.22,-4.57 32.72,-8.94 52.51,-13.13 19.79,-4.19 40.52,-7.8 62.21,-10.84 21.69,-3.04 43.76,-5.52 66.21,-7.42 22.45,-1.9 43.95,-2.85 64.5,-2.85 49.47,0 93.61,7.42 132.42,22.26 38.81,14.84 71.54,35.77 98.17,62.78 26.64,27.02 46.99,59.93 61.07,98.74 14.08,38.81 21.12,82.19 21.12,130.14zm102.74 4.57c0,-53.27 8.18,-99.89 24.54,-139.84 16.36,-39.95 37.86,-73.25 64.5,-99.89 26.64,-26.64 57.27,-46.8 91.89,-60.5 34.63,-13.7 70.21,-20.55 106.74,-20.55 85.24,0 152.59,26.07 202.06,78.2 49.47,52.13 74.2,128.81 74.2,230.02 0,9.89 -0.38,20.74 -1.14,32.53 -0.76,11.8 -1.52,22.26 -2.28,31.39l-385.84 0c3.8,35.01 20.17,62.78 49.09,83.33 28.92,20.55 67.73,30.82 116.44,30.82 31.2,0 61.83,-2.85 91.9,-8.56 30.06,-5.71 54.6,-12.75 73.63,-21.12l22.83 138.13c-9.13,4.57 -21.31,9.13 -36.53,13.7 -15.22,4.57 -32.15,8.56 -50.8,11.99 -18.65,3.42 -38.62,6.28 -59.93,8.56 -21.31,2.28 -42.62,3.42 -63.93,3.42 -54.03,0 -101.03,-7.99 -140.98,-23.97 -39.95,-15.98 -73.06,-37.86 -99.31,-65.64 -26.26,-27.78 -45.66,-60.69 -58.22,-98.74 -12.56,-38.05 -18.84,-79.15 -18.84,-123.29zm399.54 -65.07c-0.76,-14.46 -3.23,-28.54 -7.42,-42.24 -4.19,-13.7 -10.65,-25.88 -19.41,-36.53 -8.75,-10.65 -19.79,-19.41 -33.1,-26.26 -13.32,-6.85 -29.87,-10.27 -49.66,-10.27 -19.03,0 -35.39,3.23 -49.09,9.7 -13.7,6.47 -25.11,15.03 -34.25,25.68 -9.13,10.65 -16.17,23.02 -21.12,37.1 -4.95,14.08 -8.56,28.35 -10.84,42.81l224.89 0zm295.66 -219.18c28.92,-8.37 66.21,-16.17 111.87,-23.4 45.66,-7.23 93.61,-10.84 143.84,-10.84 50.99,0 93.42,6.66 127.28,19.98 33.87,13.32 60.69,32.15 80.48,56.51 19.79,24.35 33.87,53.27 42.24,86.76 8.37,33.49 12.56,70.78 12.56,111.87l0 339.04 -170.09 0 0 -318.49c0,-54.8 -7.23,-93.61 -21.69,-116.44 -14.46,-22.83 -41.48,-34.25 -81.05,-34.25 -12.18,0 -25.11,0.57 -38.81,1.71 -13.7,1.14 -25.88,2.47 -36.53,3.99l0 463.47 -170.09 0 0 -579.91zm1173.52 444.06c25.11,0 45.85,-2.09 62.21,-6.28 16.36,-4.19 29.49,-9.89 39.38,-17.12 9.89,-7.23 16.74,-15.79 20.55,-25.69 3.81,-9.89 5.71,-20.93 5.71,-33.1 0,-25.88 -12.18,-47.37 -36.53,-64.5 -24.35,-17.12 -66.21,-35.58 -125.57,-55.37 -25.87,-9.13 -51.75,-19.6 -77.63,-31.39 -25.88,-11.8 -49.09,-26.64 -69.63,-44.52 -20.55,-17.88 -37.29,-39.57 -50.23,-65.07 -12.94,-25.49 -19.41,-56.51 -19.41,-93.04 0,-36.53 6.85,-69.44 20.55,-98.74 13.7,-29.3 33.11,-54.22 58.22,-74.77 25.11,-20.55 55.56,-36.34 91.32,-47.37 35.77,-11.03 76.1,-16.55 121,-16.55 53.27,0 99.31,5.71 138.13,17.12 38.81,11.42 70.78,23.97 95.89,37.67l-51.37 140.41c-22.07,-11.42 -46.61,-21.5 -73.63,-30.25 -27.02,-8.75 -59.55,-13.13 -97.6,-13.13 -42.62,0 -73.25,5.9 -91.89,17.69 -18.65,11.8 -27.97,29.87 -27.97,54.22 0,14.46 3.42,26.64 10.27,36.53 6.85,9.89 16.55,18.84 29.11,26.83 12.56,7.99 27.02,15.22 43.38,21.69 16.36,6.47 34.44,13.13 54.22,19.98 41.1,15.22 76.86,30.25 107.31,45.09 30.44,14.84 55.75,32.15 75.91,51.94 20.17,19.79 35.2,43 45.09,69.63 9.89,26.64 14.84,58.98 14.84,97.03 0,73.82 -25.88,131.09 -77.63,171.8 -51.75,40.72 -129.76,61.07 -234.02,61.07 -35.01,0 -66.59,-2.09 -94.75,-6.28 -28.16,-4.19 -53.08,-9.32 -74.77,-15.41 -21.69,-6.09 -40.33,-12.56 -55.94,-19.41 -15.6,-6.85 -28.73,-13.32 -39.38,-19.41l50.23 -141.55c23.59,12.94 52.7,24.54 87.33,34.82 34.63,10.27 77.06,15.41 127.28,15.41zm998.86 -165.53c0,47.18 -6.85,90.37 -20.55,129.57 -13.7,39.19 -33.49,72.68 -59.36,100.46 -25.88,27.78 -56.89,49.28 -93.04,64.5 -36.15,15.22 -76.67,22.83 -121.57,22.83 -44.14,0 -84.29,-7.61 -120.43,-22.83 -36.15,-15.22 -67.16,-36.72 -93.04,-64.5 -25.88,-27.78 -46.04,-61.26 -60.5,-100.46 -14.46,-39.19 -21.69,-82.38 -21.69,-129.57 0,-47.18 7.42,-90.18 22.26,-129 14.84,-38.81 35.39,-71.92 61.64,-99.31 26.26,-27.4 57.46,-48.71 93.61,-63.93 36.15,-15.22 75.53,-22.83 118.15,-22.83 43.38,0 83.14,7.61 119.29,22.83 36.15,15.22 67.16,36.53 93.04,63.93 25.87,27.4 46.04,60.5 60.5,99.31 14.46,38.81 21.69,81.81 21.69,129zm-173.52 0c0,-52.51 -10.46,-93.8 -31.39,-123.86 -20.93,-30.06 -50.8,-45.09 -89.61,-45.09 -38.81,0 -68.87,15.03 -90.18,45.09 -21.31,30.06 -31.96,71.35 -31.96,123.86 0,52.51 10.65,94.18 31.96,125 21.31,30.82 51.37,46.23 90.18,46.23 38.81,0 68.68,-15.41 89.61,-46.23 20.93,-30.82 31.39,-72.49 31.39,-125zm817.35 280.82c-28.92,8.37 -66.21,16.17 -111.87,23.4 -45.66,7.23 -93.61,10.84 -143.84,10.84 -50.99,0 -93.42,-6.85 -127.28,-20.55 -33.87,-13.7 -60.69,-32.92 -80.48,-57.65 -19.79,-24.73 -33.87,-54.22 -42.24,-88.47 -8.37,-34.25 -12.56,-71.92 -12.56,-113.01l0 -334.48 170.09 0 0 313.93c0,54.79 7.23,94.37 21.69,118.72 14.46,24.35 41.48,36.53 81.05,36.53 12.18,0 25.11,-0.57 38.81,-1.71 13.7,-1.14 25.88,-2.47 36.53,-4l0 -463.47 170.09 0 0 579.91zm521.69 -429.22c-15.22,-3.8 -33.11,-7.8 -53.65,-11.99 -20.55,-4.19 -42.62,-6.28 -66.21,-6.28 -10.65,0 -23.4,0.95 -38.24,2.85 -14.84,1.9 -26.06,4 -33.67,6.28l0 458.9 -170.09 0 0 -568.49c30.44,-10.65 66.4,-20.74 107.88,-30.25 41.48,-9.51 87.71,-14.27 138.7,-14.27 9.13,0 20.17,0.57 33.1,1.71 12.94,1.14 25.88,2.66 38.81,4.57 12.94,1.9 25.88,4.19 38.81,6.85 12.94,2.66 23.97,5.9 33.11,9.7l-28.54 140.41zm79.91 149.54c0,-43.38 7.04,-84.28 21.12,-122.72 14.08,-38.43 34.44,-71.92 61.07,-100.46 26.64,-28.54 58.98,-51.18 97.03,-67.92 38.05,-16.74 81.43,-25.11 130.14,-25.11 31.96,0 61.26,2.85 87.9,8.56 26.64,5.71 52.51,13.89 77.63,24.54l-35.39 135.85c-15.98,-6.09 -33.49,-11.42 -52.51,-15.98 -19.03,-4.57 -40.33,-6.85 -63.93,-6.85 -50.23,0 -87.71,15.6 -112.44,46.8 -24.73,31.2 -37.1,72.3 -37.1,123.29 0,54.03 11.61,95.89 34.82,125.57 23.21,29.68 63.74,44.52 121.58,44.52 20.55,0 42.62,-1.9 66.21,-5.71 23.59,-3.8 45.28,-9.89 65.07,-18.26l23.97 139.27c-19.79,8.37 -44.52,15.6 -74.2,21.69 -29.68,6.09 -62.4,9.13 -98.17,9.13 -54.79,0 -101.98,-8.18 -141.55,-24.54 -39.57,-16.36 -72.11,-38.62 -97.6,-66.78 -25.5,-28.16 -44.14,-61.45 -55.94,-99.89 -11.8,-38.43 -17.69,-80.1 -17.69,-125zm542.24 4.57c0,-53.27 8.18,-99.89 24.54,-139.84 16.36,-39.95 37.86,-73.25 64.5,-99.89 26.64,-26.64 57.27,-46.8 91.89,-60.5 34.63,-13.7 70.21,-20.55 106.74,-20.55 85.24,0 152.59,26.07 202.06,78.2 49.47,52.13 74.2,128.81 74.2,230.02 0,9.89 -0.38,20.74 -1.14,32.53 -0.76,11.8 -1.52,22.26 -2.28,31.39l-385.84 0c3.8,35.01 20.17,62.78 49.09,83.33 28.92,20.55 67.73,30.82 116.44,30.82 31.2,0 61.83,-2.85 91.9,-8.56 30.06,-5.71 54.6,-12.75 73.63,-21.12l22.83 138.13c-9.13,4.57 -21.31,9.13 -36.53,13.7 -15.22,4.57 -32.15,8.56 -50.8,11.99 -18.65,3.42 -38.62,6.28 -59.93,8.56 -21.31,2.28 -42.62,3.42 -63.93,3.42 -54.03,0 -101.03,-7.99 -140.98,-23.97 -39.95,-15.98 -73.06,-37.86 -99.31,-65.64 -26.26,-27.78 -45.66,-60.69 -58.22,-98.74 -12.56,-38.05 -18.84,-79.15 -18.84,-123.29zm399.54 -65.07c-0.76,-14.46 -3.23,-28.54 -7.42,-42.24 -4.19,-13.7 -10.65,-25.88 -19.41,-36.53 -8.75,-10.65 -19.79,-19.41 -33.1,-26.26 -13.32,-6.85 -29.87,-10.27 -49.66,-10.27 -19.03,0 -35.39,3.23 -49.09,9.7 -13.7,6.47 -25.11,15.03 -34.25,25.68 -9.13,10.65 -16.17,23.02 -21.12,37.1 -4.95,14.08 -8.56,28.35 -10.84,42.81l224.89 0z"/>
  </g>
 </g>
</svg>
