<?xml version="1.0" encoding="UTF-8"?>
<!DOCTYPE svg PUBLIC "-//W3C//DTD SVG 1.1//EN" "http://www.w3.org/Graphics/SVG/1.1/DTD/svg11.dtd">
<!-- Creator: CorelDRAW 2021.5 -->
<svg xmlns="http://www.w3.org/2000/svg" xml:space="preserve" width="655.143mm" height="695.749mm" version="1.1" style="shape-rendering:geometricPrecision; text-rendering:geometricPrecision; image-rendering:optimizeQuality; fill-rule:evenodd; clip-rule:evenodd"
viewBox="0 0 10138.27 10766.65"
 xmlns:xlink="http://www.w3.org/1999/xlink"
 xmlns:xodm="http://www.corel.com/coreldraw/odm/2003">
 <defs>
  <style type="text/css">
   <![CDATA[
    .fil1 {fill:#FEFEFE}
    .fil2 {fill:#EF7F1A}
    .fil3 {fill:#FEFEFE;fill-rule:nonzero}
    .fil0 {fill:#EE7F19;fill-rule:nonzero}
   ]]>
  </style>
 </defs>
 <g id="Слой_x0020_1">
  <metadata id="CorelCorpID_0Corel-Layer"/>
  <g id="_2382574416608">
   <path class="fil0" d="M7821.96 8848.32l-83.2 0 0.11 -540.34 -154.19 406.97c-33.65,80.52 -143.31,68.15 -166.65,0l-155.9 -381.19 0.41 145.83 0 216.82 0 4.52 0 4.52 0 4.55 0 1.27 0 71.83c-0.49,42.86 -22.88,63.47 -65.22,65.23l-70.18 0 0 -112.9 0 -488.63 0.03 -1.54 0.05 -1.52 0.03 0 0.08 -1.54 0.19 -1.52 0.19 -1.51 0.27 -1.52 0.27 -1.52 0.35 -1.52 0.38 -1.52 0.41 -1.49 0.03 0 0.46 -1.49 0.49 -1.49 0.54 -1.46 0.57 -1.46 0.65 -1.46 0.62 -1.43 0.7 -1.44 0.7 -1.41 0.76 -1.41 0.81 -1.38 0.81 -1.38 0.84 -1.38 0.89 -1.33 0.92 -1.33 0.03 0 0.92 -1.3 0.97 -1.3 1 -1.25 1.06 -1.25 1.06 -1.25 1.08 -1.19 1.11 -1.19 1.14 -1.16 1.17 -1.14 1.19 -1.11 1.19 -1.08 1.22 -1.06 1.25 -1.03 1.27 -1.03 1.3 -0.95 1.3 -0.97 1.33 -0.92 1.35 -0.89 1.35 -0.84 1.38 -0.84 1.38 -0.79 1.41 -0.76 1.41 -0.73 1.43 -0.68 1.43 -0.65 1.46 -0.6 1.43 -0.6 0.03 0 1.46 -0.52 1.46 -0.51 0.03 0 1.46 -0.46 1.52 -0.43 1.51 -0.38 1.49 -0.35 0.03 0 1.49 -0.27 0.03 0 1.52 -0.27 1.52 -0.19 1.51 -0.16 1.54 -0.14 1.52 -0.05 1.54 -0.03 16.06 0 138.63 0 159.12 425.17 153.95 -388.97c12.05,-24.18 31.41,-36.31 58.27,-36.2l103.86 0 64.85 0 0 601.64c-0.16,44.65 -18.2,65.12 -65.23,65.23zm-1135.19 11.59c-95.55,0 -173.34,-31.11 -233.5,-93.17 -60.16,-62.25 -90.16,-143.2 -90.16,-243.06 0,-105.38 30.46,-190.61 91.57,-255.73 61.14,-65.06 141.93,-97.77 242.73,-97.77 95.22,0 172.23,31.27 230.95,93.49 58.75,62.38 88.1,144.61 88.1,246.52 0,104.78 -30.46,189.39 -91.43,253.51 -60.78,64.14 -140.3,96.2 -238.26,96.2zm6.53 -560.35c-52.72,0 -94.6,19.68 -125.58,59.38 -30.95,39.53 -46.52,91.76 -46.52,156.82 0,66.04 15.57,118.27 46.52,156.88 30.97,38.39 71.59,57.59 121.76,57.59 51.9,0 92.87,-18.74 123.33,-56.05 30.32,-37.45 45.57,-89.21 45.57,-155.55 0,-69.23 -14.76,-123.03 -44.13,-161.45 -29.51,-38.42 -69.83,-57.62 -120.95,-57.62zm-429.15 538.8c-44.11,14.89 -91.11,21.55 -154.57,21.55 -102.24,0 -182.7,-30 -241.27,-90.16 -58.73,-60.19 -87.94,-140.3 -87.94,-240.51 0,-106.65 32.87,-193.18 98.72,-259.52 65.87,-66.36 151.46,-99.53 256.54,-99.53 39.45,0 66.82,2.49 95.44,7.47 39.34,6.85 68.34,20.17 69.18,67.77l0 39.04c-3.95,40.18 -37.44,36.28 -55.69,30.62 -30.24,-9.39 -62.14,-15.54 -96.85,-15.54 -62.54,0 -113.18,19.68 -151.62,59.05 -38.39,39.37 -57.62,92.71 -57.62,160.02 0,64.47 18.11,115.88 54.45,154.14 36.2,38.26 85.07,57.45 146.53,57.45 41.53,0 68.56,-10.59 106.84,-19.14 22.47,-5.01 54.04,5.25 53.96,29.38l0 35.12c-1.24,39.18 -13.16,55.07 -36.09,62.79zm-882.39 21.55c-95.55,0 -173.34,-31.11 -233.5,-93.17 -60.19,-62.25 -90.19,-143.2 -90.19,-243.06 0,-105.38 30.49,-190.61 91.6,-255.73 61.14,-65.06 141.93,-97.77 242.73,-97.77 95.22,0 172.23,31.27 230.95,93.49 58.76,62.38 88.1,144.61 88.1,246.52 0,104.78 -30.46,189.39 -91.43,253.51 -60.81,64.14 -140.33,96.2 -238.26,96.2zm6.5 -560.35c-52.69,0 -94.6,19.68 -125.55,59.38 -30.95,39.53 -46.52,91.76 -46.52,156.82 0,66.04 15.57,118.27 46.52,156.88 30.95,38.39 71.59,57.59 121.76,57.59 51.9,0 92.87,-18.74 123.33,-56.05 30.32,-37.45 45.57,-89.21 45.57,-155.55 0,-69.23 -14.76,-123.03 -44.13,-161.45 -29.54,-38.42 -69.85,-57.62 -120.97,-57.62zm-398.12 4.11l-235.26 0 0 163.83 150.89 0c32.68,0 65.33,32.68 65.33,65.33l0 56.42 -216.22 0 0 259.06 -84.99 0c-32.65,0 -65.36,-32.65 -65.36,-65.31l0 -601.56 320.3 0c32.65,0 65.31,32.65 65.31,65.33l0 56.88zm-618.75 544.87c-24.61,-0.43 -58.65,5.5 -96.44,-39.31l-249.31 -379.98c-16.03,-24.45 -27.29,-42.86 -33.49,-55.23l-1.73 0c2.36,23.47 3.63,59.54 3.63,107.79l0 315.62c0,23.18 -16.19,50.9 -38.28,50.9l-38.28 0 -65.33 0 0 -65.31 0 -39.34 0 -496.89c6.58,-50.06 56.48,-66.42 89.43,-65.31 36.34,-1.11 67.28,3.33 97.74,38.69l239.35 367.2c12.08,18.41 23.18,36.5 33.49,54.42l1.92 0c-2.55,-15.38 -3.79,-46.03 -3.79,-91.6l0 -303.95c0,-32.11 32.65,-64.79 65.55,-64.79l76.3 0 0.05 65.33 0 413.79 0 122.44c-1.84,48.6 -50.31,66.09 -80.79,65.52zm-736.02 -0.22l-85.02 0c0,-200.52 0,-401.01 0,-601.53 0,-32.68 32.68,-65.33 65.33,-65.33l84.99 0 0 601.72c0,32.49 -32.65,65.14 -65.31,65.14zm-247.79 0l-407.16 0c-58.43,0 -83.07,-67.36 -44.3,-114.69l320.74 -429.96 -317.16 0 0 -56.78c0,-32.76 32.68,-65.44 65.71,-65.44l370.88 0 75.03 0c2.52,50.36 -7.72,94.36 -33.63,130.5l-300.67 414.44 335.25 0 0 56.8c0,32.46 -32.65,65.12 -64.68,65.12zm-560.43 -288.76c0,200.14 -93.33,300.35 -279.85,300.35 -181.16,0 -271.68,-97.77 -271.62,-293.36l0.08 -319.76c0,-32.68 18.68,-65.33 65.36,-65.33l85.21 0 0 386.85c0,107.92 42.21,161.91 126.52,161.91 82.69,0 124.14,-52.07 124.14,-156.36l0 -327.07c0,-32.68 33.28,-65.33 65.2,-65.33l84.96 0 0 378.11z"/>
   <path class="fil1" d="M5177.42 806.17c1055.83,0 1988.74,525.97 2551.21,1330.11 291.43,-405.65 500.4,-754.18 588.93,-999.55 82.51,-166.14 284.08,-233.93 450.22,-151.42 166.14,82.51 233.93,284.08 151.42,450.21 -777.22,1471.37 -2040.84,2667.96 -3317.13,3730.39 -613.13,510.39 -2483.24,1959.88 -3408.58,2027.3 -159.04,11.58 -271.86,-22.1 -342.88,-91.83 -80.48,-79.02 -110.22,-204.36 -94.79,-364.56 28.85,-299.53 224.93,-702.25 545.01,-1123.35 38.62,-50.9 79.89,-49.93 92.18,2.16 12.29,52.09 -9.05,135.58 -47.67,186.47 -265.39,349.14 -425.41,656.61 -444.74,857.2 -7.81,81.15 10.92,148.24 59.43,195.87 57.98,56.92 154.7,84.1 294.57,73.91 300.05,-21.86 687.64,-196.67 1121.8,-474.26 -818.97,-582.82 -1310.35,-1532.99 -1310.35,-2537.2l0 -0.26c423.53,634.77 931.15,1235.73 1455.43,1785.62 -309.54,-413.42 -1770.81,-2419.44 -1103.96,-3072.33 331.76,-324.79 1111.54,-168.45 2113.81,348.67 -393.64,301.18 -805.49,654.21 -1221,1050.37 426.23,-319.22 2423.18,-1767.06 3072.24,-1103.97 140.93,143.87 191.26,372.1 160.9,666.21 314.81,-351.57 606.59,-698.72 860.18,-1023.16 28.55,-267.33 -18.56,-473.78 -150.93,-600.87 -385.88,-370.54 -1400.87,24.75 -2605.4,923.66 -652.98,-473.46 -1267.02,-833.73 -1785.8,-1051.59 569.67,-634.51 1396.17,-1033.81 2315.9,-1033.81zm379.47 3823.41c27.35,-27.08 54.61,-54.28 81.86,-81.53 -202.13,-239.92 -421.1,-484.13 -655.14,-729.59 116.43,155.46 343.86,454.19 573.28,811.12zm2625.61 -1520.65c69.24,257.91 106.38,528.95 106.38,808.71 0,143.27 -9.67,284.27 -28.5,422.48l-0.35 2.7 -1.57 10.89 -1.31 9.76 -0.17 1.22 -1.66 10.98 -4.97 32.77 -0.18 1.48 -1.57 9.41 -1.83 10.81 -0.43 2.96 -1.4 7.93 -1.83 10.89 -0.7 4.36 -1.22 6.45 -1.92 10.8 -6.01 32.42 -2.09 10.8c-77.91,399.65 -232.94,771.42 -449.24,1099.52l2.53 0c-222.13,340.13 -508.93,634.16 -843.14,864.57 -177.5,-383.96 -447.83,-823.61 -795.43,-1292.84 667.22,-591.14 1398.68,-1321.43 2036.58,-2079.09zm-2219.05 2238.7c130.76,274.05 229.87,550.48 261.3,801.21 124.24,991.09 -1387.85,1044.32 -2235.36,676.3 715.03,-456.91 1409.26,-1003.66 1739.29,-1278.39 76.9,-64.01 155.26,-130.47 234.78,-199.12z"/>
   <polygon class="fil2" points="8992.39,0 9119.62,121.25 9295.32,125.48 9299.55,301.18 9420.8,428.41 9299.55,555.64 9295.32,731.34 9119.62,735.57 8992.39,856.81 8865.16,735.57 8689.46,731.34 8685.23,555.64 8563.98,428.41 8685.23,301.18 8689.46,125.48 8865.16,121.25 "/>
   <path class="fil3" d="M273.82 9861.84c0,57.83 7.09,109.98 21.26,156.47 14.17,46.49 34.58,86.46 61.23,119.9 26.64,33.45 59.24,59.24 97.79,77.38 38.55,18.14 82.77,27.21 132.66,27.21 48.76,0 92.69,-9.07 131.81,-27.21 39.12,-18.14 72,-43.94 98.64,-77.38 26.64,-33.45 47.05,-73.42 61.23,-119.9 14.17,-46.49 21.26,-98.64 21.26,-156.47 0,-57.83 -7.09,-110.27 -21.26,-157.32 -14.17,-47.05 -34.58,-87.3 -61.23,-120.75 -26.64,-33.45 -59.53,-59.24 -98.64,-77.39 -39.12,-18.14 -83.05,-27.21 -131.81,-27.21 -49.89,0 -94.11,9.35 -132.66,28.06 -38.55,18.71 -71.15,44.79 -97.79,78.23 -26.64,33.45 -47.05,73.7 -61.23,120.75 -14.17,47.05 -21.26,98.93 -21.26,155.62zm899.71 0c0,100.91 -15.02,189.64 -45.07,266.17 -30.05,76.54 -71.15,140.6 -123.31,192.19 -52.16,51.59 -114.24,90.42 -186.23,116.5 -72,26.08 -149.38,39.12 -232.15,39.12 -80.5,0 -156.47,-13.04 -227.9,-39.12 -71.43,-26.08 -133.79,-64.91 -187.09,-116.5 -53.29,-51.59 -95.24,-115.65 -125.86,-192.19 -30.61,-76.53 -45.92,-165.26 -45.92,-266.17 0,-100.91 15.87,-189.64 47.62,-266.17 31.75,-76.53 74.55,-140.88 128.41,-193.04 53.86,-52.16 116.22,-91.27 187.08,-117.35 70.87,-26.08 145.42,-39.12 223.65,-39.12 80.5,0 156.47,13.04 227.9,39.12 71.43,26.08 133.79,65.2 187.09,117.35 53.29,52.16 95.24,116.5 125.86,193.04 30.61,76.53 45.92,165.26 45.92,266.17zm777.25 149.67c0,-78.24 -17.57,-140.88 -52.72,-187.93 -35.15,-47.05 -87.31,-70.58 -156.47,-70.58 -22.68,0 -43.65,0.85 -62.93,2.55 -19.28,1.7 -35.15,3.68 -47.62,5.95l0 457.51c15.87,10.21 36.57,18.71 62.08,25.51 25.51,6.8 51.31,10.2 77.38,10.2 120.19,0 180.28,-81.07 180.28,-243.21zm258.52 -6.8c0,69.17 -8.5,132.09 -25.51,188.79 -17.01,56.69 -41.95,105.45 -74.83,146.27 -32.88,40.82 -73.7,72.57 -122.45,95.24 -48.76,22.68 -104.88,34.01 -168.38,34.01 -35.15,0 -68.03,-3.4 -98.64,-10.2 -30.61,-6.8 -60.09,-16.44 -88.44,-28.91l0 336.75 -253.42 0 0 -1178.63c22.68,-6.8 48.76,-13.32 78.24,-19.56 29.48,-6.24 60.38,-11.62 92.69,-16.16 32.31,-4.54 65.2,-8.22 98.64,-11.06 33.45,-2.84 65.48,-4.25 96.09,-4.25 73.7,0 139.46,11.06 197.29,33.17 57.83,22.11 106.58,53.29 146.27,93.54 39.69,40.25 70.02,89.29 90.99,147.12 20.98,57.83 31.47,122.45 31.47,193.89zm153.07 6.8c0,-79.37 12.19,-148.82 36.57,-208.34 24.38,-59.53 56.41,-109.13 96.09,-148.82 39.68,-39.68 85.32,-69.73 136.91,-90.14 51.59,-20.41 104.6,-30.61 159.02,-30.61 126.99,0 227.34,38.83 301.04,116.5 73.7,77.67 110.55,191.9 110.55,342.7 0,14.74 -0.57,30.9 -1.7,48.47 -1.13,17.57 -2.27,33.16 -3.4,46.77l-574.86 0c5.67,52.16 30.05,93.54 73.13,124.16 43.09,30.61 100.91,45.92 173.48,45.92 46.49,0 92.13,-4.25 136.91,-12.76 44.79,-8.51 81.35,-18.99 109.7,-31.47l34.02 205.79c-13.61,6.8 -31.75,13.61 -54.42,20.41 -22.68,6.8 -47.91,12.76 -75.68,17.86 -27.78,5.1 -57.54,9.35 -89.29,12.76 -31.75,3.4 -63.5,5.1 -95.24,5.1 -80.5,0 -150.52,-11.91 -210.05,-35.72 -59.53,-23.81 -108.85,-56.41 -147.97,-97.8 -39.12,-41.38 -68.03,-90.42 -86.74,-147.12 -18.71,-56.69 -28.06,-117.92 -28.06,-183.68zm595.27 -96.94c-1.13,-21.54 -4.82,-42.52 -11.06,-62.93 -6.24,-20.41 -15.87,-38.55 -28.91,-54.42 -13.04,-15.87 -29.48,-28.91 -49.32,-39.12 -19.84,-10.2 -44.5,-15.31 -73.98,-15.31 -28.35,0 -52.72,4.82 -73.13,14.46 -20.41,9.64 -37.42,22.39 -51.02,38.27 -13.61,15.87 -24.09,34.3 -31.47,55.28 -7.37,20.97 -12.75,42.24 -16.16,63.78l335.05 0zm440.5 -326.55c43.09,-12.47 98.64,-24.09 166.68,-34.87 68.03,-10.77 139.46,-16.16 214.3,-16.16 75.97,0 139.18,9.92 189.64,29.76 50.46,19.84 90.42,47.91 119.9,84.19 29.48,36.28 50.46,79.37 62.93,129.26 12.47,49.89 18.71,105.45 18.71,166.68l0 505.13 -253.41 0 0 -474.51c0,-81.64 -10.77,-139.46 -32.31,-173.48 -21.54,-34.02 -61.79,-51.02 -120.75,-51.02 -18.14,0 -37.42,0.85 -57.83,2.55 -20.41,1.7 -38.55,3.68 -54.42,5.95l0 690.51 -253.42 0 0 -863.99zm1748.39 661.6c37.42,0 68.31,-3.12 92.69,-9.35 24.38,-6.24 43.94,-14.74 58.68,-25.51 14.74,-10.77 24.95,-23.53 30.61,-38.27 5.67,-14.74 8.5,-31.18 8.5,-49.32 0,-38.55 -18.14,-70.58 -54.42,-96.09 -36.28,-25.51 -98.64,-53.01 -187.09,-82.49 -38.55,-13.61 -77.1,-29.2 -115.65,-46.77 -38.55,-17.57 -73.13,-39.68 -103.75,-66.33 -30.61,-26.64 -55.56,-58.96 -74.83,-96.94 -19.28,-37.98 -28.91,-84.19 -28.91,-138.61 0,-54.43 10.21,-103.46 30.61,-147.12 20.41,-43.65 49.32,-80.79 86.74,-111.4 37.42,-30.61 82.77,-54.14 136.06,-70.58 53.29,-16.44 113.38,-24.66 180.28,-24.66 79.37,0 147.97,8.5 205.79,25.51 57.83,17.01 105.45,35.72 142.86,56.12l-76.53 209.19c-32.88,-17.01 -69.45,-32.03 -109.7,-45.07 -40.25,-13.04 -88.72,-19.56 -145.42,-19.56 -63.5,0 -109.13,8.79 -136.91,26.36 -27.78,17.57 -41.67,44.5 -41.67,80.79 0,21.54 5.1,39.69 15.31,54.43 10.21,14.74 24.66,28.06 43.37,39.97 18.71,11.9 40.25,22.68 64.63,32.31 24.38,9.64 51.31,19.56 80.79,29.76 61.23,22.68 114.52,45.07 159.87,67.18 45.35,22.11 83.06,47.91 113.1,77.39 30.05,29.48 52.44,64.06 67.18,103.75 14.74,39.68 22.11,87.87 22.11,144.56 0,109.98 -38.55,195.3 -115.65,255.97 -77.1,60.66 -193.32,90.99 -348.66,90.99 -52.16,0 -99.21,-3.12 -141.16,-9.35 -41.95,-6.24 -79.09,-13.89 -111.4,-22.96 -32.31,-9.07 -60.09,-18.71 -83.34,-28.91 -23.24,-10.2 -42.8,-19.84 -58.68,-28.91l74.83 -210.9c35.15,19.28 78.52,36.57 130.11,51.87 51.59,15.31 114.8,22.96 189.64,22.96zm1488.17 -246.61c0,70.3 -10.2,134.64 -30.61,193.04 -20.41,58.39 -49.89,108.28 -88.44,149.67 -38.55,41.39 -84.76,73.42 -138.61,96.09 -53.86,22.68 -114.23,34.02 -181.13,34.02 -65.76,0 -125.57,-11.34 -179.43,-34.02 -53.86,-22.68 -100.06,-54.71 -138.61,-96.09 -38.55,-41.38 -68.6,-91.27 -90.14,-149.67 -21.54,-58.39 -32.31,-122.74 -32.31,-193.04 0,-70.3 11.06,-134.36 33.17,-192.19 22.11,-57.83 52.72,-107.15 91.84,-147.97 39.12,-40.82 85.61,-72.57 139.46,-95.24 53.86,-22.68 112.53,-34.02 176.03,-34.02 64.63,0 123.87,11.34 177.73,34.02 53.86,22.68 100.06,54.43 138.61,95.24 38.55,40.82 68.6,90.14 90.14,147.97 21.54,57.83 32.31,121.89 32.31,192.19zm-258.52 0c0,-78.23 -15.59,-139.75 -46.77,-184.53 -31.18,-44.79 -75.68,-67.18 -133.51,-67.18 -57.83,0 -102.61,22.39 -134.36,67.18 -31.75,44.79 -47.62,106.3 -47.62,184.53 0,78.24 15.87,140.31 47.62,186.23 31.75,45.92 76.53,68.88 134.36,68.88 57.83,0 102.33,-22.96 133.51,-68.88 31.18,-45.92 46.77,-108 46.77,-186.23zm1217.75 418.39c-43.09,12.47 -98.64,24.09 -166.68,34.87 -68.03,10.77 -139.46,16.16 -214.3,16.16 -75.97,0 -139.18,-10.21 -189.64,-30.61 -50.46,-20.41 -90.42,-49.04 -119.9,-85.89 -29.48,-36.85 -50.46,-80.79 -62.93,-131.81 -12.47,-51.02 -18.71,-107.15 -18.71,-168.38l0 -498.32 253.41 0 0 467.71c0,81.64 10.77,140.6 32.31,176.88 21.54,36.28 61.79,54.42 120.76,54.42 18.14,0 37.42,-0.85 57.83,-2.55 20.41,-1.7 38.55,-3.68 54.43,-5.95l0 -690.51 253.41 0 0 863.99zm777.25 -639.49c-22.68,-5.67 -49.32,-11.62 -79.94,-17.86 -30.61,-6.24 -63.5,-9.35 -98.64,-9.35 -15.87,0 -34.87,1.42 -56.98,4.25 -22.11,2.84 -38.83,5.95 -50.17,9.35l0 683.71 -253.42 0 0 -846.98c45.35,-15.87 98.93,-30.9 160.72,-45.07 61.79,-14.17 130.68,-21.26 206.64,-21.26 13.61,0 30.05,0.85 49.32,2.55 19.28,1.7 38.55,3.97 57.83,6.8 19.28,2.84 38.55,6.24 57.83,10.2 19.28,3.97 35.72,8.79 49.32,14.46l-42.52 209.19zm119.05 222.8c0,-64.63 10.49,-125.57 31.47,-182.83 20.97,-57.26 51.31,-107.15 90.99,-149.67 39.68,-42.52 87.87,-76.25 144.56,-101.2 56.69,-24.94 121.32,-37.42 193.89,-37.42 47.62,0 91.27,4.25 130.96,12.76 39.68,8.5 78.23,20.69 115.65,36.57l-52.72 202.39c-23.81,-9.07 -49.89,-17.01 -78.24,-23.81 -28.35,-6.8 -60.09,-10.2 -95.24,-10.2 -74.83,0 -130.68,23.24 -167.53,69.73 -36.85,46.49 -55.28,107.72 -55.28,183.68 0,80.5 17.29,142.86 51.87,187.09 34.58,44.22 94.96,66.33 181.13,66.33 30.61,0 63.5,-2.84 98.64,-8.51 35.15,-5.67 67.46,-14.74 96.94,-27.21l35.72 207.49c-29.48,12.47 -66.33,23.24 -110.55,32.31 -44.22,9.07 -92.97,13.61 -146.27,13.61 -81.64,0 -151.93,-12.19 -210.9,-36.57 -58.96,-24.38 -107.43,-57.54 -145.41,-99.49 -37.98,-41.95 -65.76,-91.56 -83.34,-148.82 -17.57,-57.26 -26.36,-119.34 -26.36,-186.23zm807.86 6.8c0,-79.37 12.19,-148.82 36.57,-208.34 24.38,-59.53 56.41,-109.13 96.09,-148.82 39.68,-39.68 85.32,-69.73 136.91,-90.14 51.59,-20.41 104.6,-30.61 159.02,-30.61 126.99,0 227.34,38.83 301.04,116.5 73.7,77.67 110.55,191.9 110.55,342.7 0,14.74 -0.57,30.9 -1.7,48.47 -1.13,17.57 -2.27,33.16 -3.4,46.77l-574.86 0c5.67,52.16 30.05,93.54 73.13,124.16 43.09,30.61 100.91,45.92 173.48,45.92 46.49,0 92.13,-4.25 136.91,-12.76 44.79,-8.51 81.35,-18.99 109.7,-31.47l34.02 205.79c-13.61,6.8 -31.75,13.61 -54.42,20.41 -22.68,6.8 -47.91,12.76 -75.68,17.86 -27.78,5.1 -57.54,9.35 -89.29,12.76 -31.75,3.4 -63.5,5.1 -95.24,5.1 -80.5,0 -150.52,-11.91 -210.05,-35.72 -59.53,-23.81 -108.85,-56.41 -147.97,-97.8 -39.12,-41.38 -68.03,-90.42 -86.74,-147.12 -18.71,-56.69 -28.06,-117.92 -28.06,-183.68zm595.27 -96.94c-1.13,-21.54 -4.82,-42.52 -11.06,-62.93 -6.24,-20.41 -15.87,-38.55 -28.91,-54.42 -13.04,-15.87 -29.48,-28.91 -49.32,-39.12 -19.84,-10.2 -44.5,-15.31 -73.98,-15.31 -28.35,0 -52.72,4.82 -73.13,14.46 -20.41,9.64 -37.42,22.39 -51.02,38.27 -13.61,15.87 -24.09,34.3 -31.47,55.28 -7.37,20.97 -12.75,42.24 -16.16,63.78l335.05 0z"/>
  </g>
 </g>
</svg>
