<svg width="725" height="435" viewBox="0 0 725 435" fill="none" xmlns="http://www.w3.org/2000/svg">
<path d="M0 217.206L108.611 181.003L144.815 217.206L72.4076 289.614L0 217.206Z" fill="white"/>
<path d="M72.3867 289.632L144.794 217.225L217.202 289.632L144.794 362.04L72.3867 289.632Z" fill="white"/>
<path d="M72.3867 289.632L144.794 217.225L217.202 289.632L144.794 362.04L72.3867 289.632Z" fill="white"/>
<path d="M144.812 362.033L217.22 289.625L289.628 362.033L217.22 434.44L144.812 362.033Z" fill="white"/>
<path d="M289.613 217.22L362.021 144.812L434.429 217.22L362.021 289.628L289.613 217.22Z" fill="white"/>
<path d="M217.211 144.808L289.619 72.4004L362.026 144.808L289.619 217.216L217.211 144.808Z" fill="white"/>
<path d="M181.016 108.611L217.22 0L289.628 72.4076L217.22 144.815L181.016 108.611Z" fill="white"/>
<path d="M217.211 289.632L289.619 217.225L362.026 289.632L289.619 362.04L217.211 289.632Z" fill="white"/>
<path d="M506.832 0.0208936L543.036 108.632L506.832 144.836L434.424 72.4285L506.832 0.0208936Z" fill="white"/>
<path d="M434.438 72.4096L506.845 144.817L434.438 217.225L362.03 144.817L434.438 72.4096Z" fill="white"/>
<path d="M434.438 72.4096L506.845 144.817L434.438 217.225L362.03 144.817L434.438 72.4096Z" fill="white"/>
<path d="M362.012 144.808L434.419 217.216L362.012 289.623L289.604 217.216L362.012 144.808Z" fill="white"/>
<path d="M506.836 289.621L579.244 362.028L506.836 434.436L434.428 362.028L506.836 289.621Z" fill="white"/>
<path d="M579.238 217.222L651.646 289.63L579.238 362.037L506.831 289.63L579.238 217.222Z" fill="white"/>
<path d="M615.456 181.012L724.068 217.216L651.66 289.623L579.253 217.216L615.456 181.012Z" fill="white"/>
<path d="M434.438 217.222L506.845 289.63L434.438 362.037L362.03 289.63L434.438 217.222Z" fill="white"/>
</svg>
