<svg width="1024" height="1024" viewBox="0 0 1024 1024" fill="none" xmlns="http://www.w3.org/2000/svg">
<rect width="1024" height="1024" fill="#1B1B1B"/>
<path d="M150.02 512.029L258.631 475.825L294.835 512.029L222.427 584.437L150.02 512.029Z" fill="white"/>
<rect x="222.406" y="584.455" width="102.4" height="102.4" transform="rotate(-45 222.406 584.455)" fill="white"/>
<rect x="222.406" y="584.455" width="102.4" height="102.4" transform="rotate(-45 222.406 584.455)" fill="white"/>
<rect x="294.832" y="656.855" width="102.4" height="102.4" transform="rotate(-45 294.832 656.855)" fill="white"/>
<rect x="439.633" y="512.043" width="102.4" height="102.4" transform="rotate(-45 439.633 512.043)" fill="white"/>
<rect x="367.23" y="439.631" width="102.4" height="102.4" transform="rotate(-45 367.23 439.631)" fill="white"/>
<path d="M331.036 403.434L367.24 294.823L439.647 367.23L367.24 439.638L331.036 403.434Z" fill="white"/>
<rect x="367.23" y="584.455" width="102.4" height="102.4" transform="rotate(-45 367.23 584.455)" fill="white"/>
<path d="M656.852 294.844L693.055 403.455L656.852 439.659L584.444 367.251L656.852 294.844Z" fill="white"/>
<rect x="584.457" y="367.232" width="102.4" height="102.4" transform="rotate(45 584.457 367.232)" fill="white"/>
<rect x="584.457" y="367.232" width="102.4" height="102.4" transform="rotate(45 584.457 367.232)" fill="white"/>
<rect x="512.031" y="439.631" width="102.4" height="102.4" transform="rotate(45 512.031 439.631)" fill="white"/>
<rect x="656.855" y="584.443" width="102.4" height="102.4" transform="rotate(45 656.855 584.443)" fill="white"/>
<rect x="729.258" y="512.045" width="102.4" height="102.4" transform="rotate(45 729.258 512.045)" fill="white"/>
<path d="M765.476 475.835L874.087 512.038L801.68 584.446L729.272 512.038L765.476 475.835Z" fill="white"/>
<rect x="584.457" y="512.045" width="102.4" height="102.4" transform="rotate(45 584.457 512.045)" fill="white"/>
</svg>
