<svg width="602" height="602" viewBox="0 0 602 602" fill="none" xmlns="http://www.w3.org/2000/svg">
<rect width="602" height="602" rx="167" fill="#1B1B1B"/>
<path fill-rule="evenodd" clip-rule="evenodd" d="M194.429 205.992L215.713 142.14L258.281 184.708L258.28 184.708L300.843 227.271L300.84 227.274L343.408 269.842L300.84 312.409L300.843 312.412L258.28 354.975L258.281 354.975L215.713 397.543L173.145 354.975L215.708 312.413L215.708 312.412L258.274 269.846L258.267 269.839L258.271 269.835L215.708 227.271L215.708 227.271L194.429 205.992ZM151.864 248.549L88.0122 269.833L130.579 312.4L130.567 312.412L173.135 354.98L215.703 312.412L173.136 269.845L173.148 269.833L151.864 248.549ZM385.973 142.153L407.257 206.005L385.973 227.288L385.971 227.286L343.414 269.844L385.976 312.405L385.977 312.406L428.54 269.843L471.108 312.411L428.54 354.978L428.539 354.977L385.976 397.541L343.413 354.978L343.408 354.973L300.845 312.411L343.412 269.844L300.845 227.277L343.413 184.709L343.415 184.711L385.973 142.153ZM449.833 248.555L513.684 269.839L471.116 312.407L428.549 269.839L449.833 248.555ZM281.5 534L284.5 537.5L280.5 543.684L282.5 537.5L279.342 534L281.947 526.291L281.5 534ZM279.342 521.79C279.342 521.093 279.573 520.52 280.034 520.07C280.505 519.62 281.143 519.395 281.947 519.395C282.74 519.395 283.372 519.62 283.843 520.07C284.315 520.52 284.551 521.093 284.551 521.79C284.551 522.497 284.31 523.076 283.827 523.526C283.356 523.976 282.729 524.201 281.947 524.201C281.164 524.201 280.532 523.976 280.05 523.526C279.578 523.076 279.342 522.497 279.342 521.79ZM269.247 531.483L272.173 526.291H277.14L272.189 534.811L277.349 543.684H272.366L269.263 538.219L266.177 543.684H261.177L266.338 534.811L261.402 526.291H266.386L269.247 531.483ZM292.54 528.3L288.023 526.291V543.684H292.669V531.419C293.322 530.304 294.303 529.747 295.61 529.747C296.607 529.747 297.32 529.972 297.748 530.422C298.177 530.861 298.391 531.574 298.391 532.56V543.684H303.037V532.448C303.016 530.294 302.555 528.675 301.655 527.593C300.754 526.51 299.383 525.969 297.539 525.969C295.45 525.969 293.783 526.746 292.54 528.3ZM316.99 541.916C315.844 543.309 314.258 544.006 312.232 544.006C310.367 544.006 308.942 543.47 307.956 542.398C306.981 541.326 306.483 539.756 306.461 537.688V526.291H311.107V537.527C311.107 539.338 311.932 540.244 313.582 540.244C315.158 540.244 316.24 539.697 316.83 538.604V526.291H321.491V543.684L316.99 541.916ZM334.544 526.291L331.619 531.483L328.757 526.291H323.774L328.709 534.811L323.549 543.684H328.548L331.635 538.219L334.737 543.684H339.721L334.56 534.811L339.512 526.291H334.544Z" fill="url(#paint0_linear_7_1)"/>
<defs>
<linearGradient id="paint0_linear_7_1" x1="466.5" y1="105" x2="-116" y2="781.5" gradientUnits="userSpaceOnUse">
<stop stop-color="white"/>
<stop offset="1" stop-color="#6A6A6A"/>
</linearGradient>
</defs>
</svg>
