<svg width="1024" height="1024" viewBox="0 0 1024 1024" fill="none" xmlns="http://www.w3.org/2000/svg">
<rect width="1024" height="1024" fill="#1A1A1A"/>
<path d="M170.665 325.083L268.188 373.845V422.607H170.665V325.083Z" fill="white"/>
<path d="M170.665 422.607H268.188V520.13H170.665V422.607Z" fill="white"/>
<path d="M170.665 520.13H268.188V617.654H170.665V520.13Z" fill="white"/>
<path d="M268.188 520.13H365.712V617.654H268.188V520.13Z" fill="white"/>
<path d="M365.712 520.13H463.236V617.654H365.712V520.13Z" fill="white"/>
<path d="M365.712 422.607H463.236V520.13H365.712V422.607Z" fill="white"/>
<path d="M365.712 373.845L463.236 325.083V422.607H365.712V373.845Z" fill="white"/>
<path d="M658.284 520.13L609.522 617.654H560.76V520.13H658.284Z" fill="white"/>
<path d="M560.76 520.13V617.654H463.236V520.13H560.76Z" fill="white"/>
<path d="M463.236 520.13V617.654H365.712V520.13H463.236Z" fill="white"/>
<path d="M463.236 617.654V715.178H365.712V617.654H463.236Z" fill="white"/>
<path d="M463.236 715.178V812.702H365.712V715.178H463.236Z" fill="white"/>
<path d="M560.76 715.178V812.702H463.236V715.178H560.76Z" fill="white"/>
<path d="M609.522 715.178L658.284 812.702H560.76V715.178H609.522Z" fill="white"/>
<path d="M853.331 227.559L804.569 325.083H755.807V227.559H853.331Z" fill="white"/>
<path d="M755.807 227.559V325.083H658.284V227.559H755.807Z" fill="white"/>
<path d="M658.284 227.559V325.083H560.76V227.559H658.284Z" fill="white"/>
<path d="M658.284 325.083V422.607H560.76V325.083H658.284Z" fill="white"/>
<path d="M658.284 422.607V520.13H560.76V422.607H658.284Z" fill="white"/>
<path d="M755.807 422.607V520.13H658.284V422.607H755.807Z" fill="white"/>
<path d="M804.569 422.607L853.331 520.13H755.807V422.607H804.569Z" fill="white"/>
</svg>
