<svg width="683" height="586" viewBox="0 0 683 586" fill="none" xmlns="http://www.w3.org/2000/svg">
<path d="M0 97.5238L97.5238 146.286V195.048H0V97.5238Z" fill="white"/>
<path d="M0 195.048H97.5238V292.571H0V195.048Z" fill="white"/>
<path d="M0 292.571H97.5238V390.095H0V292.571Z" fill="white"/>
<path d="M97.5238 292.571H195.048V390.095H97.5238V292.571Z" fill="white"/>
<path d="M195.048 292.571H292.571V390.095H195.048V292.571Z" fill="white"/>
<path d="M195.048 195.048H292.571V292.571H195.048V195.048Z" fill="white"/>
<path d="M195.048 146.286L292.571 97.5238V195.048H195.048V146.286Z" fill="white"/>
<path d="M487.619 292.571L438.857 390.095H390.095V292.571H487.619Z" fill="white"/>
<path d="M390.095 292.571V390.095H292.571V292.571H390.095Z" fill="white"/>
<path d="M292.571 292.571V390.095H195.048V292.571H292.571Z" fill="white"/>
<path d="M292.571 390.095V487.619H195.048V390.095H292.571Z" fill="white"/>
<path d="M292.571 487.619V585.143H195.048V487.619H292.571Z" fill="white"/>
<path d="M390.095 487.619V585.143H292.571V487.619H390.095Z" fill="white"/>
<path d="M438.857 487.619L487.619 585.143H390.095V487.619H438.857Z" fill="white"/>
<path d="M682.667 0L633.905 97.5238H585.143V0H682.667Z" fill="white"/>
<path d="M585.143 0V97.5238H487.619V0H585.143Z" fill="white"/>
<path d="M487.619 0V97.5238H390.095V0H487.619Z" fill="white"/>
<path d="M487.619 97.5238V195.048H390.095V97.5238H487.619Z" fill="white"/>
<path d="M487.619 195.048V292.571H390.095V195.048H487.619Z" fill="white"/>
<path d="M585.143 195.048V292.571H487.619V195.048H585.143Z" fill="white"/>
<path d="M633.905 195.048L682.667 292.571H585.143V195.048H633.905Z" fill="white"/>
</svg>
