<?xml version="1.0" standalone="no"?>
<!DOCTYPE svg PUBLIC "-//W3C//DTD SVG 1.1//EN" "http://www.w3.org/Graphics/SVG/1.1/DTD/svg11.dtd">
<svg width="186mm" height="162mm" viewBox="-93 -81 186 162" xmlns="http://www.w3.org/2000/svg"
    version="1.1">
    <title>Xin Logo</title>
    
    <path
        stroke="black" 
        fill="#5277c3" 
        stroke-width="0"
        d="M 12.2487,-21 L -0.452988,-43 L 21.2983,-80.6743 L -1.79572,-80.6743 L -12,-63 L -22.2043,-80.6743 L -45.2983,-80.6743 L 0.701691,-0.999985 z"
    />
    
    <path
        stroke="black" 
        fill="#7caedc" 
        stroke-width="0"
        d="M 37.0126,-21.8923 L 80.5152,-21.8923 L 68.9682,-41.8923 L 48.5596,-41.8923 L 58.7639,-59.5666 L 47.2169,-79.5666 L 1.21687,0.107681 L 24.3109,0.107681 z"
    />

    <path
        stroke="black" 
        fill="#7caedc" 
        stroke-width="0" 
        d="M -12.0622,-21.1077 L -37.4656,-21.1077 L -59.2169,-58.782 L -70.7639,-38.782 L -60.5596,-21.1077 L -80.9682,-21.1077 L -92.5152,-1.10768 L -0.515167,-1.10768 z"
    />

    <path
        stroke="black" 
        fill="#5277c3" 
        stroke-width="0" 
        d="M -1.21687,-0.107681 L -24.3109,-0.107681 L -37.0126,21.8923 L -80.5152,21.8923 L -68.9682,41.8923 L -48.5596,41.8923 L -58.7639,59.5666 L -47.2169,79.5666 z"
    />

    <path
        stroke="black" 
        fill="#7caedc" 
        stroke-width="0" 
        d="M -12.2487,21 L 0.452988,43 L -21.2983,80.6743 L 1.79572,80.6743 L 12,63 L 22.2043,80.6743 L 45.2983,80.6743 L -0.701691,0.999985 z"
    />

    <path
        stroke="black" 
        fill="#5277c3" 
        stroke-width="0" 
        d="M 70.7639,38.782 L 60.5596,21.1077 L 80.9682,21.1077 L 92.5152,1.10768 L 0.515167,1.10768 L 12.0622,21.1077 L 37.4656,21.1077 L 59.2169,58.782 z"
    />
</svg>